<?xml version="1.0" encoding="UTF-8" standalone="no"?>
<svg width="20px" height="20px" viewBox="0 0 20 20" version="1.1" xmlns="http://www.w3.org/2000/svg" xmlns:xlink="http://www.w3.org/1999/xlink">
    <!-- Generator: Sketch 43.2 (39069) - http://www.bohemiancoding.com/sketch -->
    <title>icon-instagram</title>
    <desc>Created with Sketch.</desc>
    <defs></defs>
    <g id="Page-1" stroke="none" stroke-width="1" fill="none" fill-rule="evenodd">
        <g id="Artboard" transform="translate(-6.000000, -6.000000)" fill-rule="nonzero" fill="#BEC3CC">
            <g id="icon-instagram" transform="translate(6.000000, 6.000000)">
                <path d="M17.6844444,19.6044444 L2.31444444,19.6044444 L2.19111111,19.5844444 C1.34555556,19.4755556 0.635555556,18.8311111 0.447777778,17.9988889 L0.394444444,17.7055556 L0.394444444,2.29333333 L0.413333333,2.18555556 C0.534444444,1.32333333 1.16444444,0.637777778 2.01555556,0.444444444 L2.29333333,0.394444444 L17.7055556,0.394444444 L17.8133333,0.413333333 C18.6855556,0.532222222 19.3955556,1.20111111 19.5633333,2.06222222 L19.6044444,2.31444444 L19.6044444,17.6844444 L19.5622222,17.9422222 C19.4088889,18.7311111 18.7677778,19.3855556 17.9833333,19.5522222 L17.6844444,19.6044444 Z M2.47333333,8.18333333 L2.47333333,16.7644444 C2.47333333,17.1733333 2.82777778,17.5244444 3.23666667,17.5244444 L16.76,17.5244444 C17.1733333,17.5244444 17.5244444,17.1733333 17.5244444,16.7611111 L17.5244444,8.18444444 L15.6911111,8.18444444 C15.95,9.01222222 16.03,9.85333333 15.9277778,10.7111111 C15.8255556,11.5688889 15.5488889,12.3677778 15.0988889,13.1055556 C14.6477778,13.8444444 14.0644444,14.4555556 13.3488889,14.9422222 C11.4944444,16.2044444 9.05333333,16.3155556 7.08666667,15.2122222 C6.09222222,14.6544444 5.31111111,13.8766667 4.76666667,12.8755556 C3.95444444,11.38 3.82444444,9.81111111 4.30111111,8.18333333 L2.47333333,8.18333333 L2.47333333,8.18333333 Z M10,6.10666667 C7.87,6.10555556 6.13777778,7.82 6.10777778,9.94 C6.07666667,12.1177778 7.82111111,13.8444444 9.91111111,13.89 C12.0855556,13.9366667 13.8455556,12.1988889 13.8911111,10.0855556 C13.9377778,7.90555556 12.18,6.10555556 10.0011111,6.10666667 L10,6.10666667 Z M15.8377778,5.32666667 L15.8377778,5.32333333 L16.7866667,5.32222222 C17.1933333,5.31222222 17.5244444,4.96333333 17.5244444,4.55666667 L17.5244444,2.73666667 C17.5244444,2.30222222 17.18,1.95555556 16.7455556,1.95555556 L14.9311111,1.95555556 C14.4977778,1.95555556 14.1522222,2.30333333 14.1522222,2.73777778 L14.1544444,4.54111111 L14.2,4.80888889 C14.3088889,5.12888889 14.6022222,5.32555556 14.9611111,5.32666667 L15.8366667,5.32666667 L15.8377778,5.32666667 Z" id="Shape"></path>
            </g>
        </g>
    </g>
</svg>