<?xml version="1.0" encoding="UTF-8" standalone="no"?>
<svg width="21px" height="18px" viewBox="0 0 21 18" version="1.1" xmlns="http://www.w3.org/2000/svg" xmlns:xlink="http://www.w3.org/1999/xlink">
    <!-- Generator: Sketch 43.2 (39069) - http://www.bohemiancoding.com/sketch -->
    <title>icon-medium</title>
    <desc>Created with Sketch.</desc>
    <defs></defs>
    <g id="Page-1" stroke="none" stroke-width="1" fill="none" fill-rule="evenodd">
        <g id="Artboard" transform="translate(-9.000000, -9.000000)" fill-rule="nonzero">
            <g id="icon-medium" transform="translate(9.000000, 9.000000)">
                <path d="M13.7773433,0.0203391445 C13.6738428,-0.0323477471 13.5892052,0.0209102761 13.5892052,0.138706172 L13.5892052,14.625174 L19.8197092,17.7968107 C20.1301405,17.9548714 20.3841234,17.795026 20.3841234,17.4416382 L20.3841234,3.49688868 C20.3841234,3.4274248 20.3455561,3.3638864 20.2845497,3.33283112 L13.7773433,0.0203391445" id="Fill-6" fill="#E7EBF3"></path>
                <path d="M6.79498826,11.1708273 L13.4796742,0.11157742 C13.54033,0.0112724301 13.6746142,-0.0277073027 13.7781146,0.0249795889 L20.2352538,3.31198482 C20.315684,3.35289212 20.344364,3.45526747 20.2972418,3.53322694 L13.5899064,14.6298145 L6.79498826,11.1708273" id="Fill-7" fill="#D8DCE3"></path>
                <path d="M0.752622331,0.312258792 C0.338690567,0.101582617 0.198446026,0.257501548 0.44099896,0.6587929 L6.79498826,11.1708273 L13.5899064,14.6298145 L6.83888482,3.460836 C6.8102048,3.41328929 6.76897291,3.37495208 6.72002756,3.34996507 L0.752622331,0.312258792" id="Fill-9" fill="#CBCFD6"></path>
                <path d="M6.79498826,17.4462787 C6.79498826,17.7996664 6.54093528,17.9595118 6.23050399,17.8014511 L0.376346226,14.8213578 C0.169345284,14.715984 0,14.4370576 0,14.2014658 L0,0.357520973 C0,0.121929181 0.169345284,0.015341743 0.376346226,0.120715526 L6.71119216,3.3455388 C6.76252166,3.37166808 6.79498826,3.42506888 6.79498826,3.48353848 L6.79498826,17.4462787" id="Fill-10" fill="#C0C6CF"></path>
            </g>
        </g>
    </g>
</svg>