<?xml version="1.0" encoding="UTF-8" standalone="no"?>
<svg width="18px" height="22px" viewBox="0 0 18 22" version="1.1" xmlns="http://www.w3.org/2000/svg" xmlns:xlink="http://www.w3.org/1999/xlink">
    <!-- Generator: Sketch 43.2 (39069) - http://www.bohemiancoding.com/sketch -->
    <title>icon-github</title>
    <desc>Created with Sketch.</desc>
    <defs></defs>
    <g id="Page-1" stroke="none" stroke-width="1" fill="none" fill-rule="evenodd">
        <g id="Artboard" transform="translate(-7.000000, -5.000000)" fill-rule="nonzero" fill="#BEC3CC">
            <g id="icon-github" transform="translate(7.000000, 5.000000)">
                <path d="M1.0351,10.2542 C0.7601,9.4589 0.638,8.547 0.638,7.5284 C0.638,5.7211 1.2111,5.0391 1.9811,4.0755 C1.3926,2.0152 2.1923,0.6061 2.1923,0.6061 C2.1923,0.6061 3.4298,0.3542 5.7673,1.9998 C7.0345,1.4663 10.4137,1.4212 12.0131,1.881 C12.9932,1.2441 14.7884,0.3388 15.5133,0.5929 C15.7091,0.9031 16.1315,1.8073 15.7696,3.7939 C16.0149,4.2295 17.2931,5.1579 17.2986,7.7814 C17.2777,8.7494 17.1754,9.5667 16.9851,10.2575 C17.0214,10.2575 16.742,11.1144 16.676,11.1122 C15.8279,12.9426 14.0888,13.6257 11.2783,13.9095 C12.1891,14.4727 12.4498,15.18 12.4498,17.0918 C12.4498,19.0036 12.4234,19.261 12.43,19.701 C12.4399,20.4226 13.5157,20.768 13.4761,21.0012 C13.4354,21.2333 12.5752,21.1959 12.1737,21.0573 C11.0341,20.6668 11.1485,19.7351 11.1485,19.7351 L11.11,17.1787 C11.11,17.1787 11.1881,15.8026 10.67,15.8026 L10.67,19.9881 C10.67,20.8978 11.319,21.1739 11.319,21.5105 C11.319,22.0891 10.1354,21.4555 9.7702,21.0958 C9.2147,20.5469 9.2774,19.3842 9.2906,18.4646 C9.3038,17.5758 9.2818,15.6332 9.2818,15.6332 L8.9045,15.6409 C8.9045,15.6409 9.0585,19.8858 8.7054,20.6591 C8.2478,21.6524 6.8684,21.9934 6.8684,21.5413 C6.8684,21.2366 7.2083,21.3334 7.3964,20.6514 C7.557,20.0717 7.502,15.7443 7.502,15.7443 C7.502,15.7443 7.0598,16.0006 7.0598,16.8113 L7.0499,19.932 C7.0499,20.7251 5.9037,21.1772 5.3526,21.1772 C5.0743,21.1772 4.7267,21.164 4.7267,21.0188 C4.7267,20.6514 5.775,20.4369 5.775,19.6735 C5.775,19.0113 5.7607,17.3096 5.7607,17.3096 C5.7607,17.3096 5.2316,17.3987 4.4781,17.3987 C2.5773,17.3987 1.9767,16.2063 1.6907,15.5397 C1.3189,14.6707 0.836,14.2626 0.3223,13.937 C0.0077,13.7368 -0.0649,13.5003 0.2992,13.4332 C1.9811,13.1219 2.4123,15.3087 3.5354,15.6574 C4.3373,15.906 5.3691,15.7982 5.8817,15.4726 C5.9488,14.8049 6.4394,14.2274 6.8475,13.9227 C3.9897,13.6532 2.2957,12.6775 1.4168,11.11 C1.4058,11.11 1.0032,10.2575 1.0362,10.2575 L1.0351,10.2542 Z" id="Shape"></path>
            </g>
        </g>
    </g>
</svg>