<?xml version="1.0" encoding="UTF-8" standalone="no"?>
<svg width="23px" height="18px" viewBox="0 0 23 18" version="1.1" xmlns="http://www.w3.org/2000/svg" xmlns:xlink="http://www.w3.org/1999/xlink">
    <!-- Generator: Sketch 43.2 (39069) - http://www.bohemiancoding.com/sketch -->
    <title>icon-twitter</title>
    <desc>Created with Sketch.</desc>
    <defs></defs>
    <g id="Page-1" stroke="none" stroke-width="1" fill="none" fill-rule="evenodd">
        <g id="Artboard" transform="translate(-6.000000, -8.000000)" fill-rule="nonzero" fill="#BEC3CC">
            <g id="icon-twitter" transform="translate(6.000000, 8.000000)">
                <path d="M22.5,2.1375 C21.8623097,3.05625 21.0913705,3.83906256 20.1871828,4.48593756 C20.1967006,4.61718756 20.2014594,4.81406256 20.2014594,5.07656256 C20.2014594,6.29531256 20.0206218,7.51171872 19.6589467,8.72578128 C19.2972715,9.93984372 18.7476205,11.1046876 18.0099936,12.2203126 C17.2723668,13.3359376 16.3943528,14.3226563 15.3759517,15.1804687 C14.3575507,16.0382813 13.1297588,16.7226563 11.6925762,17.2335937 C10.2553934,17.7445313 8.71827408,18 7.08121824,18 C4.50190356,18 2.14149746,17.3203126 0,15.9609376 C0.333121824,15.9984376 0.704314716,16.0171876 1.11357868,16.0171876 C3.2550762,16.0171876 5.16338832,15.3703126 6.83851524,14.0765626 C5.83914972,14.0578126 4.94447964,13.7554687 4.15450512,13.1695313 C3.36453048,12.5835937 2.8220178,11.8359376 2.52696696,10.9265626 C2.84105328,10.9734376 3.13134516,10.996875 3.3978426,10.996875 C3.80710656,10.996875 4.21161168,10.9453126 4.61135784,10.8421876 C3.54536808,10.6265626 2.66259516,10.1039063 1.96303934,9.27421872 C1.2634835,8.44453128 0.913705584,7.48125 0.913705584,6.384375 L0.913705584,6.328125 C1.5609137,6.684375 2.25571066,6.87656256 2.99809644,6.90468756 C2.36992386,6.49218756 1.87024111,5.953125 1.49904822,5.2875 C1.12785533,4.621875 0.942258888,3.9 0.942258888,3.121875 C0.942258888,2.296875 1.15164974,1.53281256 1.57043147,0.82968744 C2.7220812,2.22656256 4.12357236,3.34453128 5.77490484,4.18359372 C7.42623732,5.02265628 9.1941624,5.48906256 11.0786802,5.58281256 C11.002538,5.22656256 10.964467,4.87968756 10.964467,4.54218756 C10.964467,3.28593756 11.4141815,2.21484372 12.3136104,1.32890628 C13.2130393,0.44296872 14.3004442,0 15.5758249,0 C16.9083122,0 18.0314087,0.478125 18.9451142,1.434375 C19.9825507,1.2375 20.9581218,0.871875 21.8718274,0.3375 C21.5196701,1.415625 20.8439087,2.25 19.8445432,2.840625 C20.7296954,2.746875 21.6148477,2.5125 22.5,2.1375 Z" id="Shape"></path>
            </g>
        </g>
    </g>
</svg>