<?xml version="1.0" encoding="UTF-8" standalone="no"?>
<svg width="79px" height="29px" viewBox="0 0 79 29" version="1.1" xmlns="http://www.w3.org/2000/svg" xmlns:xlink="http://www.w3.org/1999/xlink">
  <g id="Page-1" stroke="none" stroke-width="1" fill="none" fill-rule="evenodd">
    <path d="M8.71429114,28.143707 C6.36041719,28.0501969 4.43459361,27.4061061 2.92875917,26.2098222 C2.64137696,25.9812868 1.95657699,25.2960838 1.72683244,25.0070893 C1.11619562,24.2392589 0.701043192,23.4919845 0.424140554,22.6628888 C-0.427929572,20.110709 0.0106003702,16.7616785 1.67846517,13.0861688 C3.1065089,9.9394746 5.31004125,6.81857631 9.15443333,2.49615435 C9.72073348,1.86012471 11.4071391,0 11.4180217,0 C11.4220523,0 11.3301545,0.15920894 11.2144761,0.353081093 C10.2148858,2.02739486 9.35959118,3.99957042 8.89365311,5.70693515 C8.14516956,8.44653811 8.23545514,10.7975906 9.15806087,12.6206338 C9.79449357,13.8765706 10.8855786,14.9644312 12.1124951,15.5657976 C14.2604051,16.6181889 17.405084,16.70525 21.2454455,15.8205319 C21.5098532,15.7592667 34.6117413,12.2812567 50.3609315,8.09144171 C66.1101218,3.90122363 78.9979847,0.475611518 79,0.478432942 C79.0044337,0.482060487 42.410158,16.1409651 23.4135085,24.2646517 C20.4050641,25.5508181 19.6005551,25.8756849 18.1862154,26.3722556 C14.5707618,27.6418965 11.3321698,28.2476966 8.71429114,28.143707 Z" id="Shape" fill="#BEC3CC" fill-rule="nonzero"></path>
  </g>
</svg>
