<?xml version="1.0" encoding="UTF-8" standalone="no"?>
<svg width="44px" height="61px" viewBox="0 0 44 61" version="1.1" xmlns="http://www.w3.org/2000/svg" xmlns:xlink="http://www.w3.org/1999/xlink">
    <!-- Generator: Sketch 43.2 (39069) - http://www.bohemiancoding.com/sketch -->
    <title>Artboard</title>
    <desc>Created with Sketch.</desc>
    <defs></defs>
    <g id="Page-1" stroke="none" stroke-width="1" fill="none" fill-rule="evenodd">
        <g id="Artboard" fill-rule="nonzero" fill="#BEC3CC">
            <g id="logo-apple" transform="translate(1.000000, 2.000000)">
                <path d="M40.7317073,38.4911585 C39.9847561,40.2167683 39.1006098,41.8051829 38.0762195,43.2655488 C36.679878,45.2564024 35.5365854,46.6344512 34.6554878,47.3996951 C33.2896341,48.6557927 31.8262195,49.2990853 30.2591463,49.3356707 C29.1341463,49.3356707 27.777439,49.0155488 26.1981707,48.3661585 C24.6137195,47.719817 23.1576219,47.3996951 21.8262195,47.3996951 C20.429878,47.3996951 18.9323171,47.719817 17.3304878,48.3661585 C15.7262195,49.0155488 14.4338415,49.3539634 13.4457317,49.3875 C11.9429878,49.4515244 10.4451219,48.789939 8.95,47.3996951 C7.9957317,46.567378 6.80213414,45.1405488 5.3722561,43.1192073 C3.83810975,40.9606707 2.57682927,38.4576219 1.58871951,35.6039634 C0.530487804,32.5216463 0,29.5368902 0,26.6472561 C0,23.3371951 0.715243902,20.482317 2.14786585,18.089939 C3.27378049,16.1682927 4.77164634,14.652439 6.64634146,13.5396341 C8.52103658,12.4268292 10.5466463,11.8597561 12.7280488,11.8234756 C13.9216463,11.8234756 15.4868902,12.1926829 17.4320122,12.9182927 C19.3716463,13.6463414 20.6170732,14.0155488 21.1631098,14.0155488 C21.5713415,14.0155488 22.954878,13.5838414 25.3003049,12.7231707 C27.5182927,11.925 29.3902439,11.5945122 30.9237805,11.7246951 C35.0792683,12.0600609 38.2012195,13.6981707 40.277439,16.6493902 C36.5609756,18.9012195 34.722561,22.0551829 34.7591463,26.1012195 C34.7926829,29.2527439 35.9359756,31.8753048 38.1829268,33.9576219 C39.2012195,34.9240853 40.3384146,35.6710366 41.6036585,36.2015244 C41.3292683,36.9972561 41.0396341,37.7594512 40.7317073,38.4911585 L40.7317073,38.4911585 Z M31.2012195,0.988109759 C31.2012195,3.4582622 30.2987805,5.76463415 28.5,7.89939024 C26.3292683,10.4371951 23.7036585,11.9036585 20.8564024,11.6722561 C20.8201219,11.3759146 20.7990854,11.0640244 20.7990854,10.7362805 C20.7990854,8.36493903 21.8314024,5.82713415 23.6646341,3.75213415 C24.579878,2.70152439 25.7439024,1.82795732 27.1554878,1.13109756 C28.5640244,0.444634146 29.8963415,0.065 31.1493902,0 C31.1859756,0.330213414 31.2012195,0.660457317 31.2012195,0.988079269 L31.2012195,0.988109759 Z" id="Shape"></path>
            </g>
        </g>
    </g>
</svg>