<svg width="250" height="250" viewBox="0 0 250 250" xmlns="http://www.w3.org/2000/svg" xmlns:sketch="http://www.bohemiancoding.com/sketch/ns"><title>1024</title><desc>Created with Sketch.</desc><g sketch:type="MSShapeGroup" fill="none"><path d="M200.571 125.874c0 41.233-33.465 74.697-74.698 74.697-41.233 0-74.698-33.464-74.698-74.697 0-41.233 33.464-74.698 74.698-74.698 41.233 0 74.698 33.464 74.698 74.698z" fill="#A81612"/><path d="M171.157 125.874c0 24.996-20.287 45.283-45.283 45.283-24.996 0-45.283-20.287-45.283-45.283 0-24.996 20.287-45.283 45.283-45.283 24.996 0 45.283 20.287 45.283 45.283z" fill="#fff"/><path d="M167.802 125.874c0 23.145-18.784 41.929-41.929 41.929-23.145 0-41.929-18.784-41.929-41.929 0-23.145 18.784-41.929 41.929-41.929 23.145 0 41.929 18.784 41.929 41.929z" fill="#451400"/><path d="M79.587 106.921c-.539 1.131-1.249 2.085-2.13 2.862-.881.777-1.852 1.351-2.914 1.723-1.061.372-2.18.529-3.357.471-1.176-.058-2.325-.344-3.446-.86l-.045-.021c-1.121-.516-2.077-1.197-2.868-2.045-.791-.847-1.388-1.794-1.792-2.839-.404-1.046-.585-2.159-.541-3.339.043-1.18.348-2.365.915-3.555.343-.72.717-1.35 1.12-1.89.403-.54.825-1.004 1.266-1.393.441-.388.909-.719 1.404-.993.495-.274 1.006-.504 1.533-.692l1.506 3.326c-.841.348-1.567.762-2.179 1.241-.612.48-1.103 1.109-1.474 1.888-.308.646-.467 1.304-.475 1.971-.008.668.117 1.303.377 1.906.259.603.632 1.151 1.118 1.643.486.492 1.065.893 1.738 1.203l.045.02c.673.31 1.361.492 2.065.547.703.055 1.372-.009 2.006-.192.634-.183 1.214-.49 1.738-.92.524-.431.944-.976 1.259-1.637.42-.881.611-1.703.573-2.464-.038-.761-.198-1.574-.479-2.438l3.25-1.138c.244.596.437 1.186.578 1.771.141.584.214 1.186.219 1.807.005.62-.072 1.261-.233 1.922-.16.661-.419 1.366-.776 2.116z" fill="#fff"/><path d="M72.005 84.395l2.648-2.746 5.734 5.733 5.5-5.682-5.734-5.821 2.383-2.217 12.219 12.035-1.942 2.481-4.658-4.302-5.588 5.417 4.57 4.39-2.648 2.746-12.483-12.035z" fill="#fff"/><path d="M92.693 66.692l2.867-1.553 8.171 15.293-2.867 1.553-8.171-15.293z" fill="#fff"/><path d="M114.442 68.097c.97-.184 1.761-.568 2.193-1.152.432-.584.572-1.232.42-1.944l-.01-.047c-.176-.822-.589-1.394-1.24-1.715-.651-.321-1.552-.389-2.522-.205l-2.984.567 1.084 5.077 3.059-.581zm-8.709-7.06l7.172-1.362c1.054-.2 2.024-.24 2.91-.121.887.12 1.763.378 2.448.774s1.257.917 1.717 1.562c.459.645.78 1.395.963 2.248l.01.048c.206.965.203 1.846-.01 2.643-.213.797-.588 1.502-1.127 2.115-.539.613-1.303 1.123-2.112 1.532-.809.409-1.706.707-2.692.894l-3.477.738.973 5.253-3.319.553-3.456-16.877z" fill="#fff"/><path d="M138.228 62.595c-.759-.199-1.49-.244-2.195-.135-.705.109-1.338.348-1.901.719-.562.371-1.042.845-1.441 1.423-.398.578-.679 1.234-.841 1.968l-.011.049c-.163.734-.188 1.461-.078 2.182.111.72.347 1.387.709 2s.833 1.147 1.413 1.601c.58.454 1.25.781 2.008.98.775.203 1.511.25 2.208.139.697-.111 1.326-.352 1.888-.722.562-.371 1.042-.845 1.441-1.423.399-.578.679-1.234.842-1.969l.011-.049c.163-.735.188-1.462.077-2.182s-.348-1.386-.709-1.999c-.362-.613-.829-1.146-1.4-1.598-.572-.452-1.245-.78-2.021-.983zm.819-3.464c1.337.351 2.514.906 3.533 1.665 1.019.759 1.849 1.642 2.49 2.648.641 1.006 1.07 2.103 1.287 3.291.217 1.188.19 2.394-.081 3.618l-.011.049c-.271 1.224-.756 2.31-1.454 3.258-.699.948-1.546 1.719-2.541 2.313-.995.594-2.11.975-3.343 1.144-1.233.169-2.517.078-3.854-.272-1.336-.35-2.514-.906-3.532-1.665-1.019-.76-1.849-1.642-2.49-2.648-.641-1.006-1.07-2.103-1.287-3.291-.217-1.188-.19-2.395.081-3.619l.011-.049c.271-1.224.756-2.311 1.455-3.258.699-.948 1.546-1.719 2.541-2.312.995-.594 2.11-.975 3.343-1.144 1.233-.169 2.518-.078 3.854.272z" fill="#fff"/><path d="M158.339 69.543l-5.158-3.057 1.664-2.511 12.566 7.468-1.664 2.602-4.343-2.785-7.53 12.19-2.974-1.717 7.439-12.19z" fill="#fff"/><path d="M174.624 77.887l2.332 2.66-10.878 9.192 6.058 6.849-2.742 2.049-7.848-9.238 13.077-11.513z" fill="#fff"/><path d="M187.679 95.96l4.667 11.862-2.828 1.018-3.522-8.641-4.57 1.786 2.679 6.927-3.009 1.018-2.68-6.927-3.054 1.196 3.747 8.942-3.009 1.018-4.711-12.163 16.288-6.036z" fill="#fff"/><path d="M68.164 126.774c0 .625-.333 1.203-.875 1.516-.542.313-1.209.313-1.751 0-.542-.313-.875-.891-.875-1.516s.333-1.203.875-1.516c.542-.313 1.209-.313 1.751 0 .542.313.875.891.875 1.516z" fill="#fff"/><path d="M187.812 126.774c0 .625-.333 1.203-.875 1.516-.542.313-1.209.313-1.751 0-.542-.313-.875-.891-.875-1.516s.333-1.203.875-1.516c.542-.313 1.209-.313 1.751 0 .542.313.875.891.875 1.516z" fill="#fff"/><path d="M73.822 140.661l.801 2.138-2.925 3.798 4.701.942.801 2.138-9.017 3.377-.738-1.971 5.886-2.205-4.802-1.095-.019-.052 2.872-3.94-5.848 2.19-.728-1.945 9.016-3.377z" fill="#fff"/><path d="M79.576 153.994l4.084 6.005-1.558 1.06-2.901-4.265-1.615 1.098 2.553 3.753-1.558 1.06-2.553-3.753-1.672 1.137 2.939 4.322-1.558 1.06-4.123-6.062 7.961-5.415z" fill="#fff"/><path d="M85.605 168.853l.805-5.666 1.831 1.667-.606 3.67 3.607-.939 1.78 1.62-5.547 1.312-.833 5.9-1.831-1.666.625-3.895-3.829.978-1.78-1.62 5.778-1.362z" fill="#fff"/><path d="M96.938 172.139l1.798 1.119-5.088 8.174-1.798-1.119 5.088-8.174z" fill="#fff"/><path d="M104.422 186.607c-.666-.233-1.243-.571-1.729-1.013-.486-.442-.864-.946-1.132-1.511-.269-.565-.42-1.174-.453-1.827-.034-.653.063-1.304.29-1.953l.009-.026c.227-.649.557-1.216.989-1.701.432-.485.931-.869 1.496-1.152.565-.283 1.181-.446 1.847-.49.666-.044 1.35.057 2.051.303.424.149.799.319 1.126.511.326.192.611.398.854.62.243.221.456.461.637.719.182.258.34.527.475.807l-1.786 1.022c-.243-.445-.516-.822-.82-1.133-.304-.31-.686-.546-1.144-.707-.381-.133-.759-.183-1.135-.15-.376.034-.726.139-1.051.317-.325.178-.612.415-.861.711s-.442.639-.579 1.029l-.009.026c-.136.39-.2.78-.192 1.172.009.392.082.757.221 1.097.138.34.344.642.615.908.272.265.602.466.991.602.519.182.992.24 1.418.176.426-.065.874-.199 1.344-.404l.822 1.731c-.322.169-.643.309-.963.421-.321.111-.655.186-1.004.224-.349.038-.713.032-1.094-.019-.381-.051-.792-.153-1.233-.308z" fill="#fff"/><path d="M120.626 185.878l-.899-3.252-1.641 2.948 2.54.304zm-1.54-5.891l1.939.232 2.946 10.118-2.199-.263-.618-2.249-4.042-.483-1.13 2.04-2.144-.256 5.248-9.138z" fill="#fff"/><path d="M129.351 180.583l1.944-.193 5.075 5.453-.586-5.899 2.081-.207.952 9.581-1.793.178-5.245-5.63.605 6.091-2.08.207-.952-9.581z" fill="#fff"/><path d="M153.826 184.557c-.687.306-1.363.472-2.029.498-.666.026-1.292-.071-1.877-.292-.586-.221-1.114-.557-1.587-1.009-.473-.452-.854-1.004-1.146-1.658l-.011-.025c-.28-.628-.427-1.268-.442-1.919-.014-.651.091-1.276.317-1.873.225-.598.566-1.141 1.02-1.63.455-.489 1.017-.883 1.687-1.182.394-.175.764-.308 1.11-.397.347-.089.681-.145 1.002-.168.321-.023.637-.013.947.03.31.042.621.109.933.201l-.563 2.013c-.231-.068-.454-.119-.67-.153-.216-.034-.431-.049-.645-.044-.214.005-.434.033-.662.084-.228.051-.468.133-.719.245-.352.157-.648.377-.888.66-.24.283-.421.599-.541.949-.12.35-.171.719-.154 1.108.018.389.111.772.279 1.149l.011.025c.179.402.409.744.691 1.025.281.281.597.494.948.639.351.145.718.214 1.102.209.384-.005.773-.096 1.166-.271.72-.321 1.249-.768 1.586-1.34l-.56-1.256-1.947.868-.745-1.671 3.819-1.703 1.703 3.819c-.281.587-.672 1.156-1.175 1.706-.502.55-1.156 1.005-1.96 1.363z" fill="#fff"/><path d="M163.836 172.317c.413-.321.653-.664.722-1.032.069-.367-.023-.714-.277-1.04l-.017-.022c-.281-.362-.608-.543-.98-.545-.372-.001-.765.159-1.178.479l-1.662 1.291 1.696 2.183 1.694-1.317zm-6.236-1.077l3.475-2.7c.963-.748 1.901-1.065 2.815-.95.772.097 1.439.507 2.002 1.232l.017.022c.478.616.718 1.234.718 1.855s-.172 1.21-.516 1.768l3.967 1.272-1.955 1.519-3.519-1.167-.022.017-1.292 1.004 1.89 2.433-1.673 1.3-5.907-7.603z" fill="#fff"/><path d="M167.468 162.799l1.384-1.604 7.29 6.289-1.383 1.604-7.29-6.289z" fill="#fff"/><path d="M172.167 156.725l1.071-1.827 6.645 3.895 2.428-4.141 1.661.974-3.499 5.968-8.306-4.869z" fill="#fff"/><path d="M177.338 146.629l.663-2.011 7.315 2.412 1.503-4.559 1.829.603-2.166 6.57-9.144-3.015z" fill="#fff"/><path d="M117.085 143.354c.02-.424-.512-1.496-.885-1.868-.297-.297-.641-.889-.885-1.377-.392-.783-.959-1.364-1.278-2.163-.364-1.458-1.058-3.093-1.77-4.72-.06-.907-.477-1.863-.59-2.753-.08-.626-.098-1.222-.098-1.868l.098-1.967v-2.655l.393-2.36c0-.567.976-1.363 1.18-1.77 2.368-.464 4.22-1.218 6.687-1.475 3.258.094 3.45.424 5.113.59 1.53.297 2.219 1.224 3.442 1.967.596.298-.26 1.236-.393 1.77-.065.474-.417.911-.607 1.326-.636 1.396-1.575 2.55-1.95 4.082-.606 1.295-.888 1.625-1.475 3.245l-.694 1.643c-.249.499-.127 2.449.006 2.978.174.695.12 1.383.393 2.065l.197.59c.122.502.253.989.392 1.462.518 1.764 1.144 3.335 1.771 4.733.438 1.022 1.034 1.379-.225 1.065-.549-.137-.483-.298-.758-.573-.31-.31-.703-.503-1.082-.787-.387-.29-.596-.695-.885-.983-.574-.574-.708-1.2-1.377-1.868-.374-1.932-1.884-3.905-2.852-5.9-.392-.784-.913-1.433-1.278-2.163-.278-.556-.646-.914-.787-1.475-.204-.816-.098-2.021-.098-2.95-.177-1.546-.31-2.613.197-4.032.099-1.999 1.617-1.588 2.95-1.475.871 0 1.28-.048 1.868.393 1.347 1.01.688.867.688 2.36 0 .704-.136 1.374-.492 1.967-.402.67-.701 1.5-1.082 2.262-.057.115-.098-1.088-.098-1.377 0-.744-.627-1.192-1.18-1.082-.872.174-.923.586-1.278 1.475-.216.54.186 1.519.295 2.065.287 1.382 1.357 2.434 2.655 1.868.392-.393.787-.955.787-1.475 0-.686.425-1.406.688-2.065.314-.785.674-1.68 1.082-2.36.45-1.259 1.256-2.489.492-4.032-.509-1.185-1.045-2.111-2.262-2.458-.466-.093-2.09-.078-2.557 0-1.554.045-2.809.547-4.327.885-.492.123-.465.779-.59 1.278l-.393 2.163c-.22.879.132 2.03-.197 2.852-.249.623-.226 2.105.098 2.753.391.782.529 1.722 1.082 2.458.961 1.281 1.188 2.714 2.163 3.933.674.842.826 1.554 1.278 2.458l.197.393 2.163 3.343c.359.719 1.128 1.559 1.672 1.967.608.456 1.094 1.073 1.573 1.672 3.127 2.021 5.315 2.314 6.392 1.377.522-.522-.589-1.343-.787-1.475-.91-.861-1.587-2.171-2.065-3.638-.263-1.052-.799-2.09-1.278-3.048-.518-1.537-1.013-3.085-1.082-4.72 0-.879-.069-1.523.098-2.36.203-1.966 2.05-3.722 2.366-5.201.472-.629.79-1.129.978-1.88 1.416-1.213 2.539-3.37 3.169-5.316.135-.539-.714-1.18-.908-1.568-.2-.401-.957-.957-1.377-1.377-.415-.415-.505-.898-.885-1.278-.388-.388-1.113-.919-1.573-.688-.565.282-.678.885-1.377.885h-1.672c-.933 0-1.936-.309-2.852-.492-.647-.129-1.981-.499-2.557-.787-.516-.258-1.323-.03-1.967.098-3.277.721-6.687-.526-6.884 3.442-.297 1.666-.761 3.139-.865 4.813-.138 2.223.035 4.649-.02 6.889 0 .895.174 1.664.492 2.458.43 1.076 1.131 2.041 1.573 3.147 1.762 2.596 3.326 4.571 4.818 6.195.537.403.096-.494 1.082.492z" fill="#fff"/><path d="M121.565 111.599l-4.679-3.848-.52.104c-1.672.422-4.87.135-6.239 1.04-2.274 1.296-3.77 3.594-5.407 5.199-.529.265-.296 1.521-.52 2.08-.388.971-.32 2.101-.728 3.12-.436 1.089-.416 2.737-.416 3.952l.104 5.407c0 1.274.316 3.657.624 4.887-.027 3.413 7.69 11.346 12.063 18.926.625 1.249 1.052 1.267 2.184 1.456l.728.104c1.58.226 2.444 1.144 4.055 1.144.84 0 1.706.427 2.496.624.804.201 2.064.104 2.912.104l4.264-.104c.752 0 1.542.16 2.184 0 .669-.167 1.62 0 2.288 0 .699 0 1.616-.312 2.392-.312.505 0 1.399-1.267 1.872-1.456 1.132-.453 1.696-1.718 2.288-2.704.432-.72.837-1.475 1.04-2.288.201-.805.009-1.558-.832-1.768-.743-.186-.857-.552-1.56-.728-.718-.18-1.127-.221-1.664-.624-.938-.703-2.077-1.433-3.016-2.184-.928-.743-1.973-1.403-3.12-1.976-.718-.359-.775-.768-1.456-.624-.659.14-1.013-1.577-.728-2.912.209-.981-.232-1.153-.52-1.872-.681-1.657-1.491-.79.208-2.288 1.106-.829 2.018-3.121 2.704-4.264 1.123-1.675 2.66-3.594 2.704-5.303.557-.928 1.19-3.039.936-4.056-.08-1.213-1.397-3.497-2.496-5.511-1.775-1.072-1.99-4.204-3.744-4.991-.456-.091-1.161.03-1.456.104-.453.113-1.09 1.664-1.56 1.664 1.633 1.722 2.823 3.578 4.056 5.303.93 1.888 2.006 3.042 1.872 5.199-.268 2.859-2.278 5.638-3.016 6.863l-1.248 1.768c-.415.829-.526.741-.832 1.352-.288.576-.768 1.225-1.04 1.768-.277.554-.022 2.388.104 3.016.184.918.912.737 1.144 1.664.186.744 0 1.83 0 2.6l.104 2.6c0 .684 1.011.175 1.56.312.934.233 1.156 1.364 2.288 1.768 1 .356 2.99 2.165 3.848 2.808.836.627.065-.362-.208.728-2.918 2.11-6.729 2.334-10.295 2.08-7.083-.596-7.568.082-10.295-3.12-3.463-4.839-7.05-9.467-10.503-14.974-.113-3.498-.023-7.686.208-11.231 0-2.012.52-2.37.52-4.367.497-2.816 2.937-4.566 5.095-5.303 3.052-.837 6.133-.936 9.255-.936z" fill="#fff"/><path d="M115.059 106.422c-1.158-.542-2.548-.354-3.743-.159-.37-.074 1.039-.741 1.274-1.035.469-.587 1.285-.762 1.991-1.115 1.041.124 2.622.639 3.664 1.035.96.24 2.255.637 3.265.637 3.603-3.321 7.823-6.681 11.946-9.796.646-.253 6.209-1.054 7.725-1.035 1.037.519 2.2.056 2.787 1.035 1.036 1.481 3.467 3.593 3.106 4.779-.021 1.484-.47 3.003-.876 4.54-.023.046-2.261.159-2.389.159h-1.513c-.624 0-.822-.106-.956-.239.979-.689 1.563-1.228 2.469-2.31.285-.285-.067-1.077-.159-1.354-.433-1.231-1.249-2.166-1.593-3.425-1.778.102-4.125.039-5.894.478-.64.256-1.251.491-1.832.956-1.019 1.087-1.325 1.131-2.947 2.787.171 1.565-.753 3.052-.557 4.699.843 1.799.473 1.32 3.345 1.593.53.061 1.338-.055 1.623.09.11.056.142.15.05.308-.114.197-.063 1.106-.876 1.513-.747.373-2.51.629-3.345.796l-.398.08-1.354.319c-1.641.191-2.151 1.326-3.15 1.967-.664.426-2.039.342-3.141.263-.621 0-.783-.113-1.195-.319-.303-.152-.398-.796-.478-1.115-.076-.304-.811-.891-1.035-1.115-.346-.346-.714-.396-1.115-.796-.531-.531-.897-.892-1.513-1.354-.362-.271-.513-.593-.876-.956-.782-.869-1.157-1.524-2.31-1.911z" fill="#fff"/></g></svg>