<?xml version="1.0" encoding="UTF-8" standalone="no"?>
<svg width="63px" height="44px" viewBox="0 0 63 44" version="1.1" xmlns="http://www.w3.org/2000/svg" xmlns:xlink="http://www.w3.org/1999/xlink">
    <!-- Generator: Sketch 43.2 (39069) - http://www.bohemiancoding.com/sketch -->
    <title>logo-salesforce</title>
    <desc>Created with Sketch.</desc>
    <defs>
        <polygon id="path-1" points="62.378947 44 62.378947 0 0.378947 0 0.378947 44"></polygon>
    </defs>
    <g id="Page-1" stroke="none" stroke-width="1" fill="none" fill-rule="evenodd">
        <g id="logo-salesforce">
            <mask id="mask-2" fill="white">
                <use xlink:href="#path-1"></use>
            </mask>
            <g id="path-1"></g>
            <path d="M55.8980458,19.2949439 C55.8078093,18.9494196 55.5845122,18.6012169 55.4386599,18.4421996 C55.2072985,18.1890125 54.9803863,18.0126555 54.7562549,17.9146794 C54.4638552,17.78724 54.1119466,17.7030793 53.7265296,17.7030793 C53.2782668,17.7030793 52.8710206,17.7797685 52.5402461,17.9369531 C52.2094715,18.0938558 51.9315319,18.3092622 51.712684,18.5771105 C51.4949484,18.8442539 51.330882,19.1620066 51.2261854,19.5231788 C51.1214888,19.8816726 51.0686538,20.2724491 51.0686538,20.6853584 C51.0686538,21.1058802 51.1231572,21.4976435 51.2316079,21.8485248 C51.3410319,22.20434 51.5159433,22.5157489 51.7520321,22.7752798 C51.9889551,23.0357975 52.2921999,23.2390802 52.6559268,23.3823086 C53.0175681,23.5237043 53.4567933,23.597574 53.9606719,23.5957413 C54.9986004,23.5929219 55.5453031,23.3582022 55.7704077,23.2317496 C55.8104511,23.2086301 55.8479917,23.1697216 55.8014135,23.0570844 L55.5653247,22.3900012 C55.5298697,22.2911793 55.4305956,22.3272683 55.4305956,22.3272683 C55.1726777,22.4241166 54.8081166,22.597936 53.9552493,22.5961034 C53.3977016,22.5951166 52.9848938,22.4287687 52.7261417,22.1674052 C52.4608546,21.9012486 52.3297405,21.5096262 52.3079114,20.9561671 L55.9008266,20.9589865 C55.9008266,20.9589865 55.9955124,20.9579997 56.0053842,20.8638299 C56.0091383,20.8250624 56.128434,20.1154054 55.8980458,19.2949439 L55.8980458,19.2949439 Z M50.7273123,23.1919953 L50.4667526,22.4620383 C50.4319927,22.3577184 50.3309112,22.3974727 50.3309112,22.3974727 C50.1769946,22.4575271 50.0129282,22.5119426 49.8370435,22.5397143 C49.6603245,22.5683317 49.4652523,22.5821471 49.25572,22.5821471 C48.7426649,22.5821471 48.3336112,22.427077 48.0410725,22.1211661 C47.7485337,21.8144093 47.5836331,21.319172 47.5854406,20.6494103 C47.5873871,20.0405489 47.7322661,19.5823874 47.9928258,19.232211 C48.251578,18.8848541 48.6461716,18.7065235 49.170906,18.7065235 C49.6083238,18.7065235 49.9427134,18.7581196 50.2926753,18.8690651 C50.2926753,18.8690651 50.3765161,18.906 50.4155861,18.7951954 C50.5095767,18.5328451 50.577845,18.3470429 50.6771191,18.0597404 C50.7053441,17.9775533 50.6361025,17.9432969 50.6106583,17.9331469 C50.4730093,17.8785904 50.1486306,17.7890727 49.90267,17.751151 C49.6739503,17.7161898 49.4051873,17.6975814 49.1062528,17.6975814 C48.6606317,17.6975814 48.2633963,17.7752574 47.9235842,17.9286357 C47.5836331,18.0810273 47.2966559,18.2926274 47.0677972,18.5559646 C46.8401898,18.8191608 46.6668077,19.1342349 46.5521003,19.490896 C46.4364196,19.8465704 46.3789963,20.2365011 46.3789963,20.6502562 C46.3789963,21.5427548 46.6159194,22.2642535 47.0851771,22.7920555 C47.5554081,23.3231 48.2606156,23.5919351 49.1809169,23.5919351 C49.7249778,23.5919351 50.2825255,23.4801437 50.6844882,23.3204215 C50.6844882,23.3204215 50.7610988,23.2824998 50.7273123,23.1919953 L50.7273123,23.1919953 Z M46.1369289,17.8733744 C46.0757516,17.8502549 45.769587,17.7847025 45.5346105,17.7690546 C45.0825936,17.7412829 44.8320448,17.8179721 44.6079134,17.9206003 C44.3846162,18.0222417 44.1376824,18.1876027 44.0010067,18.3750965 L44.0001725,17.9306094 C44.0001725,17.8697091 43.9572093,17.8207916 43.8971443,17.8207916 L42.9758697,17.8207916 C42.9158048,17.8207916 42.8728416,17.8697091 42.8728416,17.9306094 L42.8728416,23.3659557 C42.8728416,23.4269969 42.9212273,23.4759145 42.9821265,23.4759145 L43.9262036,23.4759145 C43.9864076,23.4759145 44.0347933,23.4269969 44.0347933,23.3659557 L44.0347933,20.6505381 C44.0347933,20.2857006 44.0748366,19.9225547 44.154089,19.6944607 C44.2315339,19.4681994 44.3373428,19.2878952 44.4684569,19.1584822 C44.599571,19.0292102 44.7490383,18.9387057 44.9131047,18.8878145 C45.0798129,18.8360775 45.2647352,18.8185969 45.3941808,18.8185969 C45.5828571,18.8185969 45.7887744,18.8685012 45.7887744,18.8685012 C45.8589893,18.8758318 45.8972251,18.8324122 45.9208618,18.7695383 C45.9820391,18.6033314 46.1577848,18.103583 46.1907371,18.0046201 C46.2179888,17.9224329 46.1605656,17.8826786 46.1369289,17.8733744 L46.1369289,17.8733744 Z M41.905545,20.6542034 C41.905545,20.24214 41.8527101,19.8531961 41.7488477,19.4975218 C41.6449853,19.1398738 41.4818922,18.8249406 41.2659641,18.5625903 C41.050036,18.2992532 40.7757114,18.087653 40.4503594,17.9342746 C40.1259806,17.7808963 39.7433444,17.7023744 39.3132958,17.7023744 C38.8822739,17.7023744 38.4985253,17.7808963 38.1741466,17.9342746 C37.8497678,18.087653 37.5755822,18.2992532 37.3596542,18.5635771 C37.1426138,18.8257865 36.9804939,19.1408606 36.8766315,19.4975218 C36.7727692,19.8531961 36.7199342,20.24214 36.7199342,20.6542034 C36.7199342,21.0661258 36.7727692,21.4560565 36.8766315,21.810885 C36.9804939,22.1675461 37.1426138,22.4824793 37.3596542,22.7458165 C37.5755822,23.0091536 37.8507411,23.2199079 38.1751198,23.36948 C38.4994986,23.5191931 38.8822739,23.5948955 39.3132958,23.5948955 C39.7433444,23.5948955 40.1251464,23.5191931 40.4503594,23.36948 C40.7747381,23.2199079 41.0490627,23.0091536 41.2659641,22.7458165 C41.4818922,22.4834661 41.6449853,22.168533 41.7488477,21.810885 C41.8527101,21.4552107 41.905545,21.0661258 41.905545,20.6542034 L41.905545,20.6542034 Z M36.6223286,17.932301 C36.6315052,17.860123 36.6014727,17.8150117 36.5056746,17.8150117 L35.3567927,17.8150117 C35.3622152,17.7890727 35.4142159,17.3788419 35.5463033,16.9935633 C35.6027532,16.8282022 35.7084231,16.6961108 35.7986596,16.6046194 C35.8861154,16.5149607 35.9883093,16.451241 36.0994017,16.4141652 C36.2132749,16.3773713 36.3427205,16.3589039 36.4848187,16.3589039 C36.5932694,16.3589039 36.6989393,16.3718734 36.7799992,16.3885082 C36.8912307,16.4124735 36.934889,16.425443 36.9640873,16.4336194 C37.0807413,16.4706953 37.0961746,16.4355931 37.1199504,16.3783581 L37.394275,15.6132989 C37.4224999,15.5311117 37.3540926,15.4960095 37.3285094,15.4857185 C37.2138019,15.4499114 37.1099395,15.4258051 36.9732639,15.4008529 C36.8347807,15.3749139 36.6707143,15.3620854 36.4848187,15.3620854 C35.8350879,15.3620854 35.3231451,15.5487333 34.9631723,15.9162494 C34.6058412,16.2812279 34.3625224,16.8373655 34.2404459,17.5683093 L34.1967875,17.8150117 L33.3813219,17.8150117 C33.3813219,17.8150117 33.2809355,17.8112054 33.2609138,17.9211642 L33.127019,18.6787519 C33.1168691,18.7509299 33.1480139,18.7960412 33.2435339,18.7960412 L34.0381437,18.7960412 L33.2317156,23.3565105 C33.1688698,23.7231807 33.0969865,24.0252854 33.0167608,24.2545071 C32.9383426,24.4807684 32.8610367,24.6497948 32.7662119,24.7725821 C32.6741679,24.8909992 32.5875464,24.9795301 32.4372448,25.0305623 C32.3132218,25.0720083 32.1702893,25.0914625 32.0144262,25.0914625 C31.9279438,25.0914625 31.812124,25.0766604 31.7264758,25.0591797 C31.6408276,25.0425449 31.5961959,25.0230907 31.5323769,24.9961649 C31.5323769,24.9961649 31.4394986,24.9603578 31.401958,25.0543867 C31.3728988,25.1320627 31.161559,25.7224566 31.1359758,25.7954805 C31.1105316,25.8675176 31.1461256,25.9237658 31.1915915,25.9405415 C31.2972614,25.9783222 31.3756796,26.0032744 31.5195853,26.0375308 C31.72008,26.0856025 31.8885957,26.088281 32.0462663,26.088281 C32.3770408,26.088281 32.6786171,26.0411961 32.9283318,25.9497048 C33.1798539,25.8573676 33.3985628,25.6965177 33.5926617,25.4804064 C33.8012207,25.2456867 33.933308,24.9999712 34.0592776,24.6645969 C34.1839959,24.332888 34.2896658,23.9208246 34.375314,23.4403893 L35.1845229,18.7960412 L36.3681647,18.7960412 C36.3681647,18.7960412 36.4684121,18.7997065 36.4884337,18.6898887 L36.6223286,17.932301 Z M32.2733175,21.8256872 L32.2733175,21.8045412 C32.2733175,20.7837574 31.3812411,20.4122941 30.5457538,20.1443049 L30.4363299,20.1092026 C29.8057865,19.9014088 29.2618647,19.7220914 29.2618647,19.3008647 L29.2618647,19.2795779 C29.2618647,18.9192514 29.5798476,18.6540816 30.072742,18.6540816 C30.6204179,18.6540816 31.2701487,18.838897 31.688379,19.0736166 C31.688379,19.0736166 31.8124021,19.1539711 31.8570337,19.0330165 C31.8816437,18.9673232 32.0929835,18.3897577 32.1156469,18.3270248 C32.1394226,18.2594988 32.0974327,18.2087486 32.0537744,18.1819638 C31.5753401,17.8873307 30.9155984,17.6858806 30.2312469,17.6858806 L30.104582,17.6867265 C28.9401277,17.6867265 28.1274428,18.4000487 28.1274428,19.4218194 L28.1274428,19.4431063 C28.1274428,20.5194334 29.0249417,20.8696098 29.864183,21.1126469 L29.9990512,21.1550797 C30.6113804,21.3453929 31.1398689,21.5097672 31.1398689,21.9459369 L31.1398689,21.9680697 C31.1398689,22.3671636 30.7963027,22.6646162 30.2432042,22.6646162 C30.0281104,22.6646162 29.3445931,22.6609509 28.6047648,22.1871414 C28.5156406,22.1334307 28.4626666,22.0973417 28.3952325,22.0529353 C28.3724301,22.0382741 28.2649527,21.9957003 28.2285244,22.111298 L27.9770022,22.8170077 C27.9377932,22.9206227 27.9906281,22.9417686 28.0034197,22.9593902 C28.1200737,23.0453836 28.237701,23.1072707 28.3569967,23.1764883 C28.9893476,23.5165146 29.5872167,23.6153366 30.2113642,23.6153366 C31.483296,23.6153366 32.2733175,22.9297859 32.2733175,21.8256872 L32.2733175,21.8256872 Z M27.1176002,19.2949439 C27.0272246,18.9494196 26.8040665,18.6012169 26.6582142,18.4421996 C26.4268528,18.1890125 26.2007748,18.0126555 25.9758092,17.9146794 C25.6824362,17.78724 25.331501,17.7030793 24.9470572,17.7030793 C24.4978211,17.7030793 24.0904359,17.7797685 23.7596613,17.9369531 C23.4290258,18.0938558 23.1510862,18.3092622 22.9322383,18.5771105 C22.7145027,18.8442539 22.5504363,19.1620066 22.4457397,19.5231788 C22.340904,19.8816726 22.2882081,20.2724491 22.2882081,20.6853584 C22.2882081,21.1058802 22.3427116,21.4976435 22.4511622,21.8485248 C22.5604471,22.20434 22.7354977,22.5157489 22.9715864,22.7752798 C23.2085095,23.0357975 23.5117542,23.2390802 23.8754811,23.3823086 C24.2371224,23.5237043 24.6763476,23.597574 25.1802262,23.5957413 C26.2181547,23.5929219 26.7648574,23.3582022 26.9899621,23.2317496 C27.0300054,23.2086301 27.067407,23.1697216 27.0209678,23.0570844 L26.784879,22.3900012 C26.749285,22.2911793 26.6501499,22.3272683 26.6501499,22.3272683 C26.392232,22.4241166 26.0276709,22.597936 25.1748036,22.5961034 C24.6180902,22.5951166 24.2044482,22.4287687 23.9455569,22.1674052 C23.6804089,21.9012486 23.5492948,21.5096262 23.5273266,20.9561671 L27.1202419,20.9589865 C27.1202419,20.9589865 27.2150667,20.9579997 27.2250776,20.8638299 C27.2286926,20.8250624 27.3481274,20.1154054 27.1176002,19.2949439 L27.1176002,19.2949439 Z M21.2741943,15.5896154 C21.2741943,15.5285742 21.2313702,15.4796567 21.1711662,15.4796567 L20.2180516,15.4796567 C20.1578476,15.4796567 20.1151625,15.5285742 20.1151625,15.5896154 L20.1151625,23.3658147 C20.1151625,23.4269969 20.1578476,23.4767603 20.2180516,23.4767603 L21.1711662,23.4767603 C21.2313702,23.4767603 21.2741943,23.4269969 21.2741943,23.3658147 L21.2741943,15.5896154 Z M18.9436171,23.1415271 L18.9416706,19.8099174 C18.9416706,19.0782687 18.7493792,18.5369333 18.3713312,18.2005722 C17.9941175,17.8661848 17.4382383,17.6971584 16.7202392,17.6971584 C16.4505029,17.6971584 16.0176735,17.7340933 15.7571138,17.7868171 C15.7571138,17.7868171 14.9725149,17.9410413 14.6499436,18.1978937 C14.6499436,18.1978937 14.5788945,18.2421592 14.6171303,18.3429547 L14.8712942,19.0358359 C14.9032733,19.1254946 14.9897557,19.0949035 14.9897557,19.0949035 C14.9897557,19.0949035 15.0171465,19.0839076 15.0489865,19.0644534 C15.7397339,18.6838269 16.6145693,18.6948228 16.6145693,18.6948228 C17.0027671,18.6948228 17.3015626,18.7751773 17.5028916,18.9305293 C17.698937,19.0839076 17.7982111,19.3129884 17.7982111,19.7989216 L17.7982111,19.9532867 C17.490239,19.9080345 17.2059036,19.8820955 17.2059036,19.8820955 C17.0600513,19.8709586 16.871514,19.8654607 16.6455751,19.8654607 C16.3374639,19.8654607 16.0395027,19.9042282 15.7597555,19.9809174 C15.4791742,20.0576066 15.2266788,20.1758828 15.0097774,20.3329264 C14.7912076,20.4918028 14.6161571,20.6942397 14.488658,20.9344573 C14.3610199,21.1746749 14.2963666,21.4573253 14.2963666,21.7732453 C14.2963666,22.0966368 14.3510091,22.3764678 14.4612673,22.6056895 C14.5706912,22.8357571 14.7282228,23.027903 14.9296907,23.1756425 C15.1292122,23.3235229 15.376146,23.431649 15.6613157,23.4973423 C15.9438436,23.5627537 16.2636341,23.5961643 16.613596,23.5961643 C16.9826064,23.5961643 17.3489751,23.5647273 17.7053329,23.5036861 C18.0579366,23.4427859 18.4897927,23.354114 18.6100618,23.3254965 C18.7294965,23.2977249 18.8615839,23.26079 18.8615839,23.26079 C18.9509862,23.2376705 18.9436171,23.1415271 18.9436171,23.1415271 L18.9436171,23.1415271 Z M13.6548392,21.8045412 C13.6548392,20.7837574 12.7627628,20.4122941 11.9271365,20.1443049 L11.8178515,20.1092026 C11.1873082,19.9014088 10.6433863,19.7220914 10.6433863,19.3008647 L10.6433863,19.2795779 C10.6433863,18.9192514 10.9613693,18.6540816 11.4542637,18.6540816 C12.0019396,18.6540816 12.6516704,18.838897 13.0699007,19.0736166 C13.0699007,19.0736166 13.1937847,19.1539711 13.2384164,19.0330165 C13.2630263,18.9673232 13.4745051,18.3897577 13.4971686,18.3270248 C13.5209443,18.2594988 13.4790934,18.2087486 13.4352961,18.1819638 C12.9568617,17.8873307 12.2962859,17.6858806 11.6129076,17.6858806 L11.4862428,17.6867265 C10.3216493,17.6867265 9.50882543,18.4000487 9.50882543,19.4218194 L9.50882543,19.4431063 C9.50882543,20.5194334 10.4054901,20.8696098 11.2457047,21.1126469 L11.3804338,21.1550797 C11.9929021,21.3453929 12.5204173,21.5097672 12.5204173,21.9459369 L12.5204173,21.9680697 C12.5204173,22.3671636 12.1768511,22.6646162 11.6247259,22.6646162 C11.4096321,22.6646162 10.7252805,22.6609509 9.98628648,22.1871414 C9.89702323,22.1334307 9.8459958,22.0955091 9.77675422,22.0529353 C9.74032591,22.0299567 9.64911611,21.9902024 9.60907279,22.111298 L9.35852392,22.8170077 C9.31931483,22.9206227 9.37214977,22.9417686 9.38494139,22.9593902 C9.50159539,23.0453836 9.61908362,23.1072707 9.7385184,23.1764883 C10.3708693,23.5165146 10.9685993,23.6153366 11.5927469,23.6153366 C12.8648177,23.6153366 13.6548392,22.9297859 13.6548392,21.8256872 L13.6548392,21.8045412 Z M62.378947,19.630741 C62.378947,27.1816658 56.3939991,33.3024218 49.0124012,33.3024218 C48.1111483,33.3024218 47.2308903,33.2099437 46.3788573,33.0364062 C44.7049628,36.0637966 41.5138712,38.1102984 37.8507411,38.1102984 C36.3182496,38.1102984 34.8684865,37.7518046 33.576255,37.1124931 C31.8796971,41.1609493 27.9240283,44 23.3151526,44 C18.5148198,44 14.4234486,40.9207316 12.8534165,36.6016077 C12.1672574,36.7485014 11.4556541,36.8260364 10.7266709,36.8260364 C5.01159837,36.8260364 0.378947,32.0800469 0.378947,26.2254475 C0.378947,22.3007654 2.45925342,18.874986 5.55273943,17.0420579 C4.91580027,15.5555 4.5623623,13.9165505 4.5623623,12.1924535 C4.5623623,5.45917076 9.95402936,0 16.6040023,0 C20.5086438,0 23.9785093,1.88184559 26.1790847,4.79857233 C28.1783312,2.68665917 30.9620376,1.37659916 34.0410635,1.37659916 C38.1342423,1.37659916 41.7043551,3.68996242 43.606135,7.12490508 C45.2588955,6.37662159 47.0878188,5.95990606 49.0124012,5.95990606 C56.3939991,5.95990606 62.378947,12.0806621 62.378947,19.630741 L62.378947,19.630741 Z M15.7817237,21.0472355 C15.5656566,21.2013187 15.46096,21.4323731 15.46096,21.7520994 C15.46096,21.9552411 15.4973883,22.1141175 15.5692717,22.2260498 C15.6157108,22.2997786 15.6348982,22.3285371 15.7763012,22.4421611 C15.7733814,22.4411743 16.0987334,22.7000003 16.8295241,22.6547481 C17.3434135,22.6231702 17.8000186,22.5243482 17.8000186,22.5243482 L17.8000186,20.8677771 C17.8000186,20.8677771 17.3389642,20.7902421 16.8241016,20.7838983 C16.0915034,20.7736073 15.7797772,21.0472355 15.7817237,21.0472355 L15.7817237,21.0472355 Z M39.3132958,18.6908755 C38.8412573,18.6908755 38.5049211,18.8563776 38.2835705,19.1964039 C38.0612466,19.5399546 37.9482076,20.0315266 37.9482076,20.6542034 C37.9482076,21.277726 38.0612466,21.7702849 38.2844047,22.1176418 C38.5049211,22.4613334 38.8412573,22.629373 39.3132958,22.629373 C39.784222,22.629373 40.1223656,22.4613334 40.346497,22.1176418 C40.5724359,21.7702849 40.6874214,21.277726 40.6874214,20.6542034 C40.6874214,20.0315266 40.5724359,19.5399546 40.346497,19.1964039 C40.1223656,18.8563776 39.784222,18.6908755 39.3132958,18.6908755 L39.3132958,18.6908755 Z M53.6417156,18.667756 C53.1698162,18.667756 52.8344533,18.8562366 52.6149102,19.1971088 C52.4690579,19.4215374 52.3752064,19.7096858 52.324179,20.0561969 L54.887369,20.0571837 C54.8619248,19.7218094 54.7972715,19.4223833 54.6487775,19.1971088 C54.424507,18.8562366 54.1138932,18.667756 53.6417156,18.667756 L53.6417156,18.667756 Z M25.869166,19.1971088 C26.0168258,19.4223833 26.0814791,19.7218094 26.1069233,20.0571837 L23.5437333,20.0561969 C23.5947607,19.7096858 23.6886123,19.4215374 23.8334912,19.1971088 C24.0549809,18.8562366 24.3893705,18.667756 24.8612699,18.667756 C25.3334475,18.667756 25.6450346,18.8562366 25.869166,19.1971088 L25.869166,19.1971088 Z" id="Fill-1" fill="#BEC3CC" fill-rule="nonzero" mask="url(#mask-2)"></path>
        </g>
    </g>
</svg>