<svg width="250" height="250" viewBox="0 0 250 250" xmlns="http://www.w3.org/2000/svg" xmlns:sketch="http://www.bohemiancoding.com/sketch/ns"><title>1024</title><desc>Created with Sketch.</desc><g sketch:type="MSLayerGroup" fill="#fff"><path sketch:type="MSShapeGroup" d="M78.87 121.741h2.637v2.169h-2.637zM78.87 113.053h2.637v2.171h-2.637zM84.145 134.774h2.64v2.173h-2.64zM78.87 117.397h2.637v2.169h-2.637zM94.699 126.085h2.643v2.171h-2.643zM84.145 126.085h2.64v2.171h-2.64zM84.145 117.397h2.64v2.169h-2.64zM84.145 121.741h2.64v2.169h-2.64zM73.593 130.43h2.643v2.171h-2.643zM68.315 113.053h2.643v2.171h-2.643zM68.315 117.397h2.643v2.169h-2.643zM68.315 121.741h2.643v2.169h-2.643zM78.87 126.085h2.637v2.171h-2.637zM94.699 121.741h2.643v2.169h-2.643zM78.87 130.43h2.637v2.171h-2.637zM73.593 113.053h2.643v2.171h-2.643zM78.87 134.774h2.637v2.173h-2.637zM94.699 113.053h2.643v2.171h-2.643zM110.531 113.053h2.635v2.171h-2.635zM110.531 117.397h2.632v2.169h-2.632zM110.531 121.741h2.632v2.169h-2.632zM115.804 130.43h2.643v2.171h-2.643zM115.804 121.741h2.643v2.169h-2.643zM115.806 117.397h2.64v2.169h-2.64zM110.531 126.085h2.632v2.171h-2.632zM115.804 126.085h2.643v2.171h-2.643zM99.966 121.741h2.645v2.169h-2.645zM99.966 126.085h2.645v2.171h-2.645zM99.966 130.43h2.645v2.171h-2.645zM68.315 126.085h2.643v2.171h-2.643zM110.531 130.43h2.632v2.171h-2.632zM94.699 117.397h2.643v2.169h-2.643zM105.249 130.43h2.643v2.171h-2.643zM99.966 113.053h2.645v2.171h-2.645zM99.966 117.397h2.645v2.169h-2.645zM41.931 113.053h2.643v2.171h-2.643zM15.552 130.43h2.643v2.171h-2.643zM15.552 113.053h2.643v2.171h-2.643zM20.832 126.085h2.637v2.171h-2.637zM15.552 126.085h2.643v2.171h-2.643zM15.552 121.741h2.643v2.169h-2.643zM31.382 126.085h2.645v2.171h-2.645zM31.382 121.741h2.645v2.169h-2.645zM20.832 121.741h2.637v2.169h-2.637zM20.832 113.053h2.637v2.171h-2.637zM5 121.746h2.64v2.167h-2.64zM5 130.432h2.64v2.169h-2.64zM10.275 113.053h2.64v2.171h-2.64zM5 117.397h2.64v2.169h-2.64zM52.488 117.397h2.643v2.169h-2.643zM31.382 117.397h2.645v2.169h-2.645zM68.315 130.43h2.643v2.171h-2.643zM10.275 117.397h2.64v2.169h-2.64zM10.275 121.746h2.64v2.167h-2.64zM10.275 130.432h2.64v2.169h-2.64zM47.214 113.053h2.64v2.171h-2.64zM52.488 121.741h2.643v2.169h-2.643zM47.214 121.741h2.64v2.169h-2.64zM52.496 130.43h2.645v2.171h-2.645zM47.214 117.397h2.64v2.169h-2.64zM63.038 117.397h2.64v2.169h-2.64zM63.038 126.085h2.64v2.171h-2.64zM63.038 121.741h2.64v2.169h-2.64zM47.214 130.43h2.64v2.171h-2.64zM36.659 130.43h2.643v2.171h-2.643zM36.659 117.397h2.643v2.169h-2.643zM36.659 126.085h2.643v2.171h-2.643zM36.659 113.053h2.643v2.171h-2.643zM36.659 121.741h2.643v2.169h-2.643zM41.931 130.43h2.643v2.171h-2.643zM115.806 113.053h2.64v2.171h-2.64zM41.931 121.741h2.643v2.169h-2.643zM163.289 126.085h2.64v2.171h-2.64zM205.495 130.432h2.64v2.169h-2.64zM221.253 126.085h2.643v2.171h-2.643zM200.218 113.053h2.643v2.171h-2.643zM210.77 130.432h2.645v2.169h-2.645zM210.77 117.395h2.645v2.171h-2.645zM210.77 113.053h2.645v2.171h-2.645zM179.116 117.395h2.637v2.171h-2.637zM210.77 126.085h2.645v2.171h-2.645zM205.495 113.053h2.64v2.171h-2.64zM189.663 121.741h2.64v2.169h-2.64zM189.663 117.395h2.64v2.171h-2.64zM189.663 126.085h2.64v2.171h-2.64zM194.938 113.053h2.643v2.171h-2.643zM194.938 130.43h2.643v2.171h-2.643zM194.938 117.395h2.643v2.171h-2.643zM194.938 126.085h2.643v2.171h-2.643zM194.938 121.741h2.643v2.169h-2.643zM200.218 130.432h2.643v2.169h-2.643zM237.085 117.395h2.637v2.171h-2.637zM237.085 121.741h2.637v2.169h-2.637zM231.808 113.053h2.643v2.171h-2.643zM237.085 130.432h2.637v2.169h-2.637zM126.358 126.085h2.637v2.171h-2.637zM221.253 121.741h2.643v2.169h-2.643zM242.357 130.432h2.643v2.169h-2.643zM242.357 121.741h2.643v2.169h-2.643zM242.357 117.395h2.643v2.171h-2.643zM226.533 126.085h2.64v2.171h-2.64zM226.533 121.741h2.64v2.169h-2.64zM226.533 130.432h2.64v2.169h-2.64zM221.253 117.395h2.643v2.171h-2.643zM231.808 130.432h2.643v2.169h-2.643zM231.808 121.741h2.643v2.169h-2.643zM226.533 117.395h2.64v2.171h-2.64zM226.533 113.053h2.64v2.171h-2.64zM237.085 113.053h2.637v2.171h-2.637zM136.908 121.741h2.645v2.169h-2.645zM142.18 130.43h2.645v2.171h-2.645zM142.18 117.395h2.645v2.171h-2.645zM136.908 113.053h2.645v2.171h-2.645zM142.18 121.741h2.645v2.169h-2.645zM147.46 121.741h2.643v2.169h-2.643zM147.46 130.43h2.643v2.171h-2.643zM142.18 113.053h2.645v2.171h-2.645zM147.46 117.395h2.643v2.171h-2.643zM131.636 130.43h2.64v2.171h-2.64zM131.636 126.085h2.64v2.171h-2.64zM126.358 117.397h2.637v2.169h-2.637zM126.358 121.741h2.637v2.169h-2.637zM131.636 113.053h2.643v2.171h-2.643zM131.636 121.741h2.64v2.169h-2.64zM136.908 130.43h2.645v2.171h-2.645zM131.636 117.397h2.643v2.169h-2.643zM173.841 126.085h2.637v2.171h-2.637zM173.841 121.741h2.637v2.169h-2.637zM179.116 121.741h2.637v2.169h-2.637zM168.561 113.053h2.64v2.171h-2.64zM173.841 130.43h2.637v2.171h-2.637zM173.841 117.395h2.637v2.171h-2.637zM173.841 113.053h2.637v2.171h-2.637zM179.116 126.085h2.637v2.171h-2.637zM179.116 130.43h2.637v2.171h-2.637zM158.009 121.741h2.645v2.169h-2.645zM158.009 113.053h2.645v2.171h-2.645zM158.009 117.395h2.645v2.171h-2.645zM163.289 113.053h2.64v2.171h-2.64zM158.009 126.085h2.645v2.171h-2.645zM158.009 130.43h2.645v2.171h-2.645zM163.289 130.43h2.64v2.171h-2.64zM163.289 117.395h2.64v2.171h-2.64zM163.289 121.741h2.64v2.169h-2.64z"/></g></svg>