<?xml version="1.0" encoding="UTF-8" standalone="no"?>
<svg width="250px" height="250px" viewBox="0 0 250 250" version="1.1" xmlns="http://www.w3.org/2000/svg" xmlns:xlink="http://www.w3.org/1999/xlink">
    <!-- Generator: Sketch 43.2 (39069) - http://www.bohemiancoding.com/sketch -->
    <title>Artboard</title>
    <desc>Created with Sketch.</desc>
    <defs>
        <linearGradient x1="55.4978432%" y1="-0.499999523%" x2="44.8168769%" y2="100.542529%" id="linearGradient-1">
            <stop stop-color="#1BAA85" offset="0%"></stop>
            <stop stop-color="#2F70F0" offset="100%"></stop>
        </linearGradient>
        <rect id="path-2" x="0" y="0" width="81.0348892" height="81.3492063" rx="10"></rect>
    </defs>
    <g id="Page-1" stroke="none" stroke-width="1" fill="none" fill-rule="evenodd">
        <g id="Artboard">
            <g id="logo" transform="translate(0.000000, 84.000000)">
                <path d="M192.284898,56.6979317 L192.284898,30.8633959 L198.865913,30.8633959 L198.865913,56.6979317 L192.284898,56.6979317 Z M192.284898,27.2643098 L192.284898,20.7070707 L198.865913,20.7070707 L198.865913,27.2643098 L192.284898,27.2643098 Z M214.963461,57.1909572 C212.868003,57.1909572 210.985393,56.8294088 209.315574,56.1063011 C207.645756,55.3831934 206.229706,54.4053693 205.067382,53.1727994 C203.905057,51.9402295 203.012864,50.5186869 202.390775,48.9081289 C201.768686,47.2975709 201.457646,45.604867 201.457646,43.8299663 C201.457646,42.0221972 201.768686,40.3130592 202.390775,38.7025012 C203.012864,37.0919432 203.905057,35.6704006 205.067382,34.4378307 C206.229706,33.2052608 207.645756,32.2274367 209.315574,31.504329 C210.985393,30.7812213 212.868003,30.4196729 214.963461,30.4196729 C217.058919,30.4196729 218.933343,30.7812213 220.586791,31.504329 C222.240238,32.2274367 223.648103,33.2052608 224.810427,34.4378307 C225.972752,35.6704006 226.864945,37.0919432 227.487034,38.7025012 C228.109124,40.3130592 228.420163,42.0221972 228.420163,43.8299663 C228.420163,45.604867 228.109124,47.2975709 227.487034,48.9081289 C226.864945,50.5186869 225.980937,51.9402295 224.834983,53.1727994 C223.68903,54.4053693 222.281165,55.3831934 220.611347,56.1063011 C218.941529,56.8294088 217.058919,57.1909572 214.963461,57.1909572 L214.963461,57.1909572 Z M208.235109,43.8299663 C208.235109,44.9803649 208.407,46.0239251 208.750786,46.9606782 C209.094572,47.8974313 209.569317,48.7109153 210.175035,49.4011544 C210.780754,50.0913935 211.492871,50.6254992 212.31141,51.0034873 C213.129948,51.3814754 214.013956,51.5704666 214.963461,51.5704666 C215.912965,51.5704666 216.796973,51.3814754 217.615512,51.0034873 C218.43405,50.6254992 219.146168,50.0913935 219.751886,49.4011544 C220.357604,48.7109153 220.832349,47.8892143 221.176135,46.9360269 C221.519922,45.9828396 221.691812,44.9310623 221.691812,43.7806638 C221.691812,42.6631337 221.519922,41.6277906 221.176135,40.6746032 C220.832349,39.7214158 220.357604,38.8997149 219.751886,38.2094757 C219.146168,37.5192366 218.43405,36.985131 217.615512,36.6071429 C216.796973,36.2291548 215.912965,36.0401635 214.963461,36.0401635 C214.013956,36.0401635 213.129948,36.2373718 212.31141,36.6317941 C211.492871,37.0262165 210.780754,37.5685391 210.175035,38.2587783 C209.569317,38.9490174 209.094572,39.7707183 208.750786,40.7239057 C208.407,41.6770931 208.235109,42.7124363 208.235109,43.8299663 L208.235109,43.8299663 Z" id="io" fill="#FFFFFF" fill-rule="nonzero"></path>
                <path d="M17.0811034,57.1909572 C15.0838699,57.1909572 13.3322241,56.7390217 11.8261136,55.8351371 C10.3200031,54.9312525 9.14132556,53.7069181 8.2900457,52.1620972 L8.2900457,67.1993747 L1.70903046,67.1993747 L1.70903046,30.8633959 L7.45514078,30.8633959 L7.45514078,35.3006253 C8.40464524,33.7886729 9.63243431,32.5972065 11.1385448,31.7261905 C12.6446554,30.8551744 14.3799306,30.4196729 16.3444226,30.4196729 C18.0797238,30.4196729 19.6840349,30.7730043 21.1574039,31.4796777 C22.6307729,32.1863511 23.8994882,33.1395242 24.9635881,34.3392256 C26.0276879,35.538927 26.8625845,36.9522526 27.4683028,38.5792448 C28.0740212,40.2062371 28.3768758,41.9235921 28.3768758,43.7313612 C28.3768758,45.6048675 28.098577,47.3633075 27.5419709,49.006734 C26.9853649,50.6501605 26.2077651,52.0799202 25.2091483,53.2960558 C24.2105316,54.5121914 23.0154835,55.4653645 21.6239684,56.1556037 C20.2324532,56.8458428 18.71818,57.1909572 17.0811034,57.1909572 L17.0811034,57.1909572 Z M14.920173,51.5704666 C15.902419,51.5704666 16.8109829,51.3568243 17.645892,50.9295334 C18.4808011,50.5022425 19.1929188,49.9270519 19.7822663,49.2039442 C20.3716139,48.4808365 20.8299885,47.6427016 21.1574039,46.6895142 C21.4848192,45.7363268 21.6485244,44.7502857 21.6485244,43.7313612 C21.6485244,42.6466997 21.4684487,41.6360076 21.1082918,40.6992544 C20.7481349,39.7625013 20.2488341,38.9490174 19.6103742,38.2587783 C18.9719143,37.5685391 18.2188703,37.0262165 17.3512197,36.6317941 C16.483569,36.2373718 15.5422641,36.0401635 14.5272766,36.0401635 C13.9051874,36.0401635 13.2667371,36.1469847 12.6119065,36.3606301 C11.9570758,36.5742756 11.3513665,36.8783049 10.7947605,37.2727273 C10.2381544,37.6671496 9.7388535,38.1273022 9.29684281,38.6531987 C8.85483211,39.1790951 8.51923643,39.7542858 8.2900457,40.3787879 L8.2900457,46.4430014 C8.87939329,47.9220853 9.77977195,49.1464197 10.9912087,50.1160414 C12.2026454,51.085663 13.5122871,51.5704666 14.920173,51.5704666 L14.920173,51.5704666 Z M31.0668329,56.6979317 L31.0668329,30.8633959 L37.6478482,30.8633959 L37.6478482,56.6979317 L31.0668329,56.6979317 Z M31.0668329,27.2643098 L31.0668329,20.7070707 L37.6478482,20.7070707 L37.6478482,27.2643098 L31.0668329,27.2643098 Z M40.2395811,43.7806638 C40.2395811,41.9728946 40.550621,40.2637566 41.1727102,38.6531987 C41.7947993,37.0426407 42.6951779,35.629315 43.8738731,34.4131794 C45.0525683,33.1970438 46.4768036,32.2274367 48.1466218,31.504329 C49.81644,30.7812213 51.6990499,30.4196729 53.794508,30.4196729 C56.6102799,30.4196729 59.0085612,31.0277316 60.989424,32.2438672 C62.9702867,33.4600029 64.4518189,35.0541027 65.4340649,37.0262145 L59.0003858,38.9983165 C58.4437797,38.0451291 57.7071063,37.3138153 56.7903433,36.8043531 C55.8735804,36.2948908 54.8586081,36.0401635 53.745396,36.0401635 C52.7958915,36.0401635 51.9118834,36.2291548 51.0933451,36.6071429 C50.2748067,36.985131 49.5626891,37.5110196 48.9569707,38.1848244 C48.3512524,38.8586293 47.8765072,39.6721132 47.5327212,40.6253006 C47.1889351,41.578488 47.0170446,42.6302652 47.0170446,43.7806638 C47.0170446,44.9310623 47.1971203,45.9828396 47.5572772,46.9360269 C47.917434,47.8892143 48.4003644,48.7109153 49.0060828,49.4011544 C49.6118011,50.0913935 50.3239188,50.6254992 51.1424571,51.0034873 C51.9609955,51.3814754 52.8286331,51.5704666 53.745396,51.5704666 C54.9240912,51.5704666 56.0127308,51.2746542 57.0113476,50.6830207 C58.0099643,50.0913871 58.7057115,49.3682903 59.0986099,48.5137085 L65.532289,50.4858105 C64.6482676,52.4579223 63.1912912,54.0684562 61.1613162,55.3174603 C59.1313411,56.5664645 56.6921335,57.1909572 53.8436201,57.1909572 C51.748162,57.1909572 49.8655521,56.8294088 48.1957339,56.1063011 C46.5259157,55.3831934 45.1016804,54.4053693 43.9229852,53.1727994 C42.74429,51.9402295 41.8357261,50.5104699 41.1972662,48.8834776 C40.5588063,47.2564854 40.2395811,45.5555644 40.2395811,43.7806638 L40.2395811,43.7806638 Z M83.2996466,55.3667629 C82.4156252,55.7611852 81.3269856,56.1556017 80.033695,56.5500241 C78.7404045,56.9444464 77.3898365,57.1416546 75.9819506,57.1416546 C75.0651877,57.1416546 74.2057353,57.0266165 73.4035677,56.7965368 C72.6014002,56.5664571 71.8974678,56.1966917 71.2917494,55.6872294 C70.6860311,55.1777672 70.2031007,54.5204065 69.8429438,53.7151275 C69.482787,52.9098485 69.3027112,51.9320244 69.3027112,50.7816258 L69.3027112,35.9415584 L65.9630916,35.9415584 L65.9630916,30.8633959 L69.3027112,30.8633959 L69.3027112,22.4819625 L75.8837265,22.4819625 L75.8837265,30.8633959 L81.3351645,30.8633959 L81.3351645,35.9415584 L75.8837265,35.9415584 L75.8837265,48.5630111 C75.8837265,49.4833299 76.1292843,50.1324737 76.6204073,50.5104618 C77.1115303,50.8884499 77.700869,51.0774411 78.3884412,51.0774411 C79.0760134,51.0774411 79.7472048,50.9624029 80.4020354,50.7323232 C81.0568661,50.5022435 81.5807228,50.3050353 81.9736212,50.1406926 L83.2996466,55.3667629 Z M92.7670672,57.1909572 C90.115003,57.1909572 88.1014289,56.3363882 86.7262845,54.6272246 C85.3511401,52.918061 84.6635783,50.3872222 84.6635783,47.034632 L84.6635783,30.8633959 L91.2445935,30.8633959 L91.2445935,45.6048581 C91.2445935,49.5819503 92.6688288,51.5704666 95.5173422,51.5704666 C96.8270035,51.5704666 98.0793484,51.1842671 99.2744143,50.4118567 C100.46948,49.6394462 101.443526,48.4644139 102.196582,46.8867244 L102.196582,30.8633959 L108.777597,30.8633959 L108.777597,49.1053391 C108.777597,49.7955782 108.908561,50.2885988 109.170493,50.5844156 C109.432425,50.8802324 109.8908,51.0445725 110.545631,51.0774411 L110.545631,56.6979317 C109.858059,56.8294058 109.252349,56.9197929 108.728485,56.9690957 C108.20462,57.0183985 107.746246,57.0430495 107.353347,57.0430495 C106.174652,57.0430495 105.249718,56.7718882 104.578516,56.2295575 C103.907315,55.6872267 103.489866,54.9394789 103.326159,53.9862915 L103.178823,51.8662819 C102.000127,53.6411825 100.518595,54.972338 98.7341817,55.8597884 C96.9497682,56.7472387 94.9607499,57.1909572 92.7670672,57.1909572 L92.7670672,57.1909572 Z M129.098781,36.5824916 C127.101548,36.6153601 125.317161,37.0015596 123.745567,37.7411015 C122.173974,38.4806434 121.044408,39.5899397 120.356836,41.0690236 L120.356836,56.6979317 L113.77582,56.6979317 L113.77582,30.8633959 L119.816603,30.8633959 L119.816603,36.3852814 C120.700624,34.6103807 121.854746,33.1806211 123.279003,32.0959596 C124.70326,31.0112981 126.201162,30.4689755 127.772756,30.4689755 C128.132913,30.4689755 128.403026,30.4771925 128.583105,30.4936267 C128.763183,30.510061 128.935074,30.534712 129.098781,30.5675806 L129.098781,36.5824916 Z M143.084511,57.1909572 C141.021794,57.1909572 139.155555,56.8376258 137.485737,56.1309524 C135.815918,55.424279 134.391683,54.4628889 133.212988,53.2467532 C132.034293,52.0306176 131.125729,50.617292 130.487269,49.006734 C129.848809,47.396176 129.529584,45.7034721 129.529584,43.9285714 C129.529584,42.0879337 129.840624,40.3541447 130.462713,38.7271525 C131.084802,37.1001602 131.985181,35.6704006 133.163876,34.4378307 C134.342571,33.2052608 135.774992,32.2274367 137.461181,31.504329 C139.14737,30.7812213 141.038165,30.4196729 143.133623,30.4196729 C145.229081,30.4196729 147.103506,30.7812213 148.756953,31.504329 C150.4104,32.2274367 151.818265,33.1970438 152.98059,34.4131794 C154.142914,35.629315 155.026922,37.0426407 155.632641,38.6531987 C156.238359,40.2637566 156.541214,41.9400266 156.541214,43.6820587 C156.541214,44.1093496 156.533028,44.5202 156.516658,44.9146224 C156.500287,45.3090448 156.459361,45.6377252 156.393877,45.9006734 L136.503496,45.9006734 C136.60172,46.9195978 136.847278,47.8234689 137.240176,48.6123136 C137.633075,49.4011583 138.140561,50.0749531 138.76265,50.6337181 C139.384739,51.1924832 140.088672,51.6197676 140.874468,51.9155844 C141.660265,52.2114012 142.478791,52.3593074 143.330071,52.3593074 C144.639732,52.3593074 145.875707,52.038844 147.038031,51.3979076 C148.200356,50.7569713 148.994326,49.9106193 149.419966,48.8588264 L155.067852,50.4365079 C154.118348,52.4086198 152.604074,54.0273706 150.524987,55.292809 C148.4459,56.5582475 145.965766,57.1909572 143.084511,57.1909572 L143.084511,57.1909572 Z M149.76375,41.6113516 C149.600042,39.6721083 148.887925,38.1190935 147.627376,36.9522607 C146.366827,35.7854279 144.836183,35.2020202 143.035399,35.2020202 C142.151377,35.2020202 141.324666,35.3581434 140.55524,35.6703944 C139.785814,35.9826455 139.106437,36.418147 138.51709,36.976912 C137.927742,37.535677 137.444812,38.2094718 137.068284,38.9983165 C136.691757,39.7871612 136.470755,40.6581642 136.405271,41.6113516 L149.76375,41.6113516 Z" id="picture" fill="#FFFFFF" fill-rule="nonzero"></path>
                <g id="Rectangle-37" transform="translate(166.980984, 0.000000)">
                    <g id="path-5-Clipped">
                        <mask id="mask-3" fill="white">
                            <use xlink:href="#path-2"></use>
                        </mask>
                        <g id="path-5"></g>
                        <rect id="path-5" stroke="#FFFFFF" stroke-width="6" mask="url(#mask-3)" x="0" y="0" width="81.0348892" height="81.3492063" rx="10"></rect>
                    </g>
                </g>
            </g>
        </g>
    </g>
</svg>