<svg width="98px" height="22px" viewBox="0 0 98 22" version="1.1" xmlns="http://www.w3.org/2000/svg" xmlns:xlink="http://www.w3.org/1999/xlink">    
  <g id="Home" stroke="none" stroke-width="1" fill="none" fill-rule="evenodd">
    <g transform="translate(-675.000000, -495.000000)" id="Asset-1" fill="#BEC3CC">
      <g transform="translate(675.000000, 495.000000)">
        <g id="Layer_2">
          <g>
            <g id="Layer_1-2">
              <polygon id="Shape" points="0.590512821 0.430983607 0 0.430983607 0 0 5.34512821 0 5.34512821 0.430983607 3.88589744 0.430983607 6.81512821 15.4486885 9.7425641 0.430983607 8.01410256 0.430983607 8.01410256 0 11.2017949 0 11.2017949 0.430983607 10.2612821 0.430983607 6.10435897 21.6537705 4.74564103 21.6537705"></polygon>
              <path d="M10.9487179,14.5163934 L14.1794872,14.5163934 L12.5641026,6.14377049 L10.9487179,14.5163934 Z M8.17384615,21.2209836 L9.1125641,21.2209836 L13.2694872,0 L14.6282051,0 L18.7851282,21.2209836 L19.3451282,21.2209836 L19.3451282,21.6519672 L14.0287179,21.6519672 L14.0287179,21.2209836 L15.4879487,21.2209836 L14.2584615,14.947377 L10.8607692,14.947377 L9.63128205,21.2209836 L11.3597436,21.2209836 L11.3597436,21.6519672 L8.17384615,21.6519672 L8.17384615,21.2209836 Z" id="Shape"></path>
              <polygon id="Shape" points="19.6394872 21.2227869 20.3538462 21.2227869 20.3538462 0.430983607 19.0310256 0.430983607 19.0310256 0 23.6815385 0 28.4720513 13.0791803 28.4720513 0.430983607 27.0630769 0.430983607 27.0630769 0 30.17 0 30.17 0.430983607 29.0158974 0.430983607 29.0158974 21.7132787 28.1561538 21.7132787 20.8976923 1.53639344 20.8976923 21.2227869 22.3066667 21.2227869 22.3066667 21.6537705 19.6394872 21.6537705"></polygon>
              <polygon id="Shape" points="30.6348718 21.6537705 30.6348718 21.2227869 31.5646154 21.2227869 31.5646154 0.430983607 30.6348718 0.430983607 30.6348718 0 35.8507692 0 35.8507692 0.430983607 34.8905128 0.430983607 34.8905128 21.2227869 35.8507692 21.2227869 35.8507692 21.6537705"></polygon>
              <path d="M39.1174359,21.6537705 L39.1174359,21.2227869 L40.1064103,21.2227869 L40.1064103,0.391311475 L40.0471795,0.391311475 C38.6382051,0.391311475 37.1897436,1.89704918 36.9205128,8.46278689 L36.4807692,8.46278689 L36.4807692,0 L47.0920513,0 L47.0920513,8.46278689 L46.6523077,8.46278689 C46.3525641,1.89704918 44.7838462,0.391311475 43.525641,0.391311475 L43.4358974,0.391311475 L43.4358974,21.2209836 L44.4553846,21.2209836 L44.4553846,21.6519672 L39.1174359,21.6537705 Z" id="Shape"></path>
              <polygon id="Shape" points="50.4035897 21.6537705 50.4035897 21.2227869 51.3925641 21.2227869 51.3925641 11.5752459 48.2551282 0.430983607 47.585641 0.430983607 47.585641 0 53.0115385 0 53.0115385 0.430983607 51.4930769 0.430983607 54.4097436 10.6411475 56.9082051 0.430983607 55.3305128 0.430983607 55.3305128 0 58.2184615 0 58.2184615 0.430983607 57.4287179 0.430983607 54.7202564 11.5337705 54.7202564 21.2227869 55.7092308 21.2227869 55.7092308 21.6537705"></polygon>
              <path d="M61.2697436,21.6537705 L61.2697436,21.2227869 L62.1384615,21.2227869 L62.1384615,0.430983607 L61.2697436,0.430983607 L61.2697436,0 L70.7179487,0 L70.7179487,6.47557377 L70.2782051,6.47557377 C70,1.89704918 68.5246154,0.430983607 66.1858974,0.430983607 L65.4679487,0.430983607 L65.4679487,10.2101639 L65.7874359,10.2101639 C67.5966667,10.2101639 68.1746154,9.40770492 68.3558974,6.47557377 L68.7651282,6.47557377 L68.7651282,14.5903279 L68.3558974,14.5903279 C68.1746154,11.3840984 67.5948718,10.6393443 65.9561538,10.6393443 L65.4661538,10.6393443 L65.4661538,21.2209836 L66.7853846,21.2209836 L66.7853846,21.6519672 L61.2697436,21.6537705 Z" id="Shape"></path>
              <path d="M71.7212821,14.5163934 L74.9520513,14.5163934 L73.3366667,6.14377049 L71.7212821,14.5163934 Z M68.9535897,21.2227869 L69.8923077,21.2227869 L74.0492308,0 L75.4079487,0 L79.5648718,21.2209836 L80.1248718,21.2209836 L80.1248718,21.6519672 L74.8084615,21.6519672 L74.8084615,21.2209836 L76.2676923,21.2209836 L75.0382051,14.947377 L71.6423077,14.947377 L70.4128205,21.2209836 L72.1412821,21.2209836 L72.1412821,21.6519672 L68.9535897,21.6519672 L68.9535897,21.2227869 Z" id="Shape"></path>
              <polygon id="Shape" points="80.4389744 21.6537705 80.4389744 21.2227869 81.3094872 21.2227869 81.3094872 0.430983607 80.4389744 0.430983607 80.4389744 0 85.5364103 0 85.5364103 0.430983607 84.6371795 0.430983607 84.6371795 21.2227869 85.5364103 21.2227869 85.5364103 21.6537705"></polygon>
              <path d="M90.3466667,0.430983607 L90.3466667,9.80803279 L90.7971795,9.80803279 C92.4125641,9.80803279 93.5846154,9.87836066 93.5846154,5.90213115 L93.5846154,4.84901639 C93.5846154,0.993606557 92.4161538,0.430983607 90.9766667,0.430983607 L90.3466667,0.430983607 Z M93.3979487,18.8821311 L93.3979487,13.5822951 C93.3979487,10.7511475 92.5884615,10.2390164 90.9102564,10.2390164 L90.3412821,10.2390164 L90.3412821,21.2209836 L91.6605128,21.2209836 L91.6605128,21.6519672 L86.1538462,21.6519672 L86.1538462,21.2209836 L87.0225641,21.2209836 L87.0225641,0.430983607 L86.1538462,0.430983607 L86.1538462,0 L90.9802564,0 C94.5179487,0 96.795641,1.62295082 96.795641,5.3304918 C96.795641,8.57639344 94.8374359,9.72688525 92.3389744,10.0280328 L92.3389744,10.0586885 C94.9487179,10.4590164 96.7023077,11.504918 96.7023077,15.3278689 L96.7023077,20.3770492 C96.7023077,21.0388525 96.9212821,21.2209836 97.2820513,21.2209836 C97.4952077,21.2119425 97.7049858,21.1642922 97.9012821,21.0803279 L97.9012821,21.5113115 C97.427293,21.7489859 96.9014227,21.863086 96.3720513,21.8431148 C94.5125641,21.8340984 93.4051282,21.1722951 93.4051282,18.8821311 L93.3979487,18.8821311 Z" id="Shape"></path>
            </g>
          </g>
        </g>
      </g>
    </g>
  </g>
</svg>
