<svg width="250" height="250" viewBox="0 0 250 250" xmlns="http://www.w3.org/2000/svg" xmlns:sketch="http://www.bohemiancoding.com/sketch/ns"><title>Mobile Portrait</title><desc>Created with Sketch.</desc><path d="M105.457 51.823c-15.96 4.234-32.571 15.309-41.909 28.12-9.12 12.269-13.354 24.863-14.331 41.909-.869 13.354.977 21.823 7.274 35.177l4.451 9.337 1.629-8.686c1.629-9.446 5.863-19.543 11.291-27.143 4.017-5.646 5.32-5.863 2.171-.434-4.777 8.251-6.949 17.263-7.057 29.206-.109 17.263.326 18.349 8.794 24.863 31.269 24.103 74.263 21.171 101.514-7.057 19.543-20.303 26.166-48.423 17.697-75.023-7.709-24.537-28.229-43.863-53.309-50.269-11.074-2.823-27.36-2.823-38.217 0zm35.069 4.886c15.309 3.909 32.68 15.526 40.823 27.251 9.011 13.029 12.92 25.514 12.92 41.149 0 12.051-1.954 20.086-7.6 31.486-8.034 16.286-22.909 29.097-40.497 34.851-7.491 2.497-10.857 3.04-21.389 3.04-14.223 0-21.063-1.629-33.006-7.817-7.383-3.8-7.383-3.909-6.84-7.817.217-2.28 2.497-8.36 4.994-13.571 15.091-32.246 40.606-54.937 70.571-62.537 4.451-1.194 8.577-2.497 9.12-3.04.543-.543-.434-1.954-2.063-3.257-2.714-2.063-3.8-2.28-12.811-1.629-8.034.434-11.509.217-18.457-1.629-9.446-2.497-20.737-3.04-21.931-.977-.434.651 1.086 2.931 3.691 5.429 7.6 7.057 7.6 7.166-.651 15.634-16.069 16.611-27.143 30.834-34.851 44.949l-4.451 8.143v-11.4c0-12.594 1.737-21.497 5.971-30.943 3.257-7.383 3.149-7.057.977-7.057-5.32 0-18.891 14.331-24.429 25.731l-2.497 5.211-1.629-4.886c-.977-3.149-1.52-9.554-1.52-17.914-.109-11.183.326-14.223 2.823-21.714 5.971-18.24 18.783-32.897 36.371-41.691 12.16-6.189 33.006-8.36 46.36-4.994z" sketch:type="MSShapeGroup" fill="#fff"/></svg>