<?xml version="1.0" encoding="UTF-8" standalone="no"?>
<svg width="159px" height="29px" viewBox="0 0 159 29" version="1.1" xmlns="http://www.w3.org/2000/svg" xmlns:xlink="http://www.w3.org/1999/xlink">
    <!-- Generator: Sketch 43.2 (39069) - http://www.bohemiancoding.com/sketch -->
    <title>Artboard</title>
    <desc>Created with Sketch.</desc>
    <defs></defs>
    <g id="Page-1" stroke="none" stroke-width="1" fill="none" fill-rule="evenodd">
        <g id="Artboard" fill-rule="nonzero" fill="#BEC3CC">
            <g id="logo-condenast" transform="translate(3.000000, 1.000000)">
                <polygon id="Shape" points="79.7031915 2.67142857 79.3755319 1.72857143 79.7031915 0.0785714286 79.5393617 0 75.0340426 3.61428571 75.0340426 3.69285714"></polygon>
                <path d="M10.8946809,19.8 C10.0765216,20.6048589 8.95387302,21.0582594 7.78191489,21.0571429 C4.17765957,21.0571429 3.27659574,17.9928571 3.27659574,14.3785714 C3.27659574,10.7642857 4.09574468,7.7 7.7,7.7 C8.82978477,7.67367455 9.91223595,8.13512767 10.6489362,8.95714286 L12.6968085,11.9428571 L12.8606383,11.9428571 L12.8606383,7.46428571 L12.6968085,7.46428571 L10.812766,8.40714286 C9.94297486,7.69970258 8.84039405,7.31006876 7.7,7.30714286 C4.17765957,7.30714286 0,9.9 0,14.4571429 C0,19.0142857 4.09574468,21.6071429 7.78191489,21.6071429 C8.98518646,21.5990091 10.1463604,21.181342 11.0585106,20.4285714 L12.8606383,21.45 L13.0244681,21.45 L13.0244681,16.7357143 L12.8606383,16.7357143 L10.8946809,19.8 Z" id="Shape"></path>
                <path d="M24.3287234,7.22857143 C20.8882979,7.22857143 16.7925532,10.0571429 16.7925532,14.3785714 C16.7925532,18.7 20.8882979,21.5285714 24.3287234,21.5285714 C27.7691489,21.5285714 31.8648936,18.7 31.8648936,14.3785714 C31.8648936,10.0571429 27.8510638,7.22857143 24.3287234,7.22857143 Z M24.3287234,21.0571429 C20.8882979,21.0571429 19.987234,18.15 19.987234,14.3785714 C19.987234,10.6071429 20.8882979,7.7 24.3287234,7.7 C27.7691489,7.7 28.6702128,10.6071429 28.6702128,14.3785714 C28.6702128,18.15 27.8510638,21.0571429 24.3287234,21.0571429 Z" id="Shape"></path>
                <polygon id="Shape" points="44.8893617 7.85714286 46.6914894 7.85714286 46.6914894 16.5 46.6095745 16.5 40.2202128 7.46428571 34.4861702 7.46428571 34.4861702 7.85714286 36.206383 7.85714286 36.206383 20.9 34.4861702 20.9 34.4861702 21.2928571 38.5819149 21.2928571 38.5819149 20.9 36.7797872 20.9 36.7797872 7.85714286 36.7797872 7.85714286 47.1010638 21.5285714 47.2648936 21.5285714 47.2648936 7.85714286 48.9851064 7.85714286 48.9851064 7.46428571 44.8893617 7.46428571"></polygon>
                <path d="M58.5691489,7.46428571 L52.0978723,7.46428571 L52.0978723,7.85714286 L53.9819149,7.85714286 L53.9819149,20.9 L52.0978723,20.9 L52.0978723,21.2928571 L58.5691489,21.2928571 C61.7638298,21.2928571 67.0882979,19.9571429 67.0882979,14.3 C67.0882979,8.64285714 61.7638298,7.46428571 58.5691489,7.46428571 Z M58.4053191,20.9 L56.8489362,20.9 L56.8489362,7.85714286 L58.4053191,7.85714286 C62.1734043,7.85714286 63.893617,10.45 63.893617,14.3785714 C63.893617,18.3071429 62.1734043,20.9 58.4053191,20.9 Z" id="Shape"></path>
                <path d="M79.9489362,20.9 L74.5425532,20.9 L74.5425532,14.0642857 L77.2457447,14.0642857 C78.0172915,14.8534387 78.6532317,15.7551534 79.1297872,16.7357143 L79.293617,16.7357143 L79.293617,11 L79.1297872,11 C78.6532317,11.9805609 78.0172915,12.8822756 77.2457447,13.6714286 L74.5425532,13.6714286 L74.5425532,7.85714286 L79.3755319,7.85714286 C80.7680851,8.72142857 81.9968085,11.1571429 81.9968085,11.1571429 L82.1606383,11.1571429 L82.1606383,7.46428571 L69.7914894,7.46428571 L69.7914894,7.85714286 L71.6755319,7.85714286 L71.6755319,20.9 L69.7914894,20.9 L69.7914894,21.2928571 L82.5702128,21.2928571 L82.5702128,16.6571429 L82.406383,16.6571429 C81.8142234,18.1818661 80.9857619,19.6122303 79.9489362,20.9 Z" id="Shape"></path>
                <polygon id="Shape" points="102.065957 7.85714286 103.868085 7.85714286 103.868085 16.5 103.78617 16.5 97.3968085 7.46428571 91.5808511 7.46428571 91.5808511 7.85714286 93.3829787 7.85714286 93.3829787 20.9 91.5808511 20.9 91.5808511 21.2928571 95.6765957 21.2928571 95.6765957 20.9 93.956383 20.9 93.956383 7.85714286 93.956383 7.85714286 104.27766 21.5285714 104.359574 21.5285714 104.359574 7.85714286 106.161702 7.85714286 106.161702 7.46428571 102.065957 7.46428571"></polygon>
                <path d="M115.418085,6.99285714 L115.254255,6.99285714 L109.110638,20.8214286 L107.390426,20.8214286 L107.390426,21.2142857 L111.240426,21.2142857 L111.240426,20.8214286 L109.602128,20.8214286 L111.81383,15.8714286 L116.482979,15.8714286 L118.858511,20.8214286 L116.974468,20.8214286 L116.974468,21.2142857 L123.691489,21.2142857 L123.691489,20.8214286 L121.971277,20.8214286 L115.418085,6.99285714 Z M112.059574,15.5571429 L114.189362,10.7642857 L116.401064,15.5571429 L112.059574,15.5571429 L112.059574,15.5571429 Z" id="Shape"></path>
                <path d="M133.848936,13.2 L130.981915,12.2571429 C129.589362,11.7857143 128.442553,11.1571429 128.442553,9.82142857 C128.442553,8.48571429 129.671277,7.62142857 131.555319,7.62142857 C132.507797,7.54509467 133.444034,7.89271651 134.094681,8.56428571 L136.142553,11.55 L136.306383,11.55 L136.306383,7.15 L136.142553,7.15 L134.258511,8.09285714 C133.509822,7.46904985 132.546876,7.1331802 131.555319,7.15 C130.376027,7.08570013 129.22033,7.48507235 128.354757,8.25601253 C127.489184,9.02695272 126.988468,10.102899 126.968085,11.2357143 C126.968085,13.2 128.442553,14.2214286 129.998936,14.7714286 L132.865957,15.7928571 C134.42234,16.3428571 135.405319,16.9714286 135.405319,18.3857143 C135.405319,19.8 134.42234,20.9785714 131.964894,20.9785714 C130.771345,20.9227945 129.625783,20.5107429 128.688298,19.8 L126.558511,16.4214286 L126.312766,16.4214286 L126.312766,21.2142857 L126.558511,21.2142857 L128.360638,20.2714286 C129.353801,20.9942983 130.555185,21.4058511 131.801064,21.45 C134.91383,21.45 136.961702,19.3285714 136.961702,16.9714286 C136.961702,14.6142857 135.651064,13.75 133.848936,13.2 Z" id="Shape"></path>
                <path d="M140.320213,7.46428571 L140.320213,11.7857143 L140.484043,11.7857143 C141.184325,10.3942931 142.035476,9.07750298 143.023404,7.85714286 L145.562766,7.85714286 L145.562766,20.9 L143.269149,20.9 L143.269149,21.2928571 L150.723404,21.2928571 L150.723404,20.9 L148.429787,20.9 L148.429787,7.85714286 L150.969149,7.85714286 C151.957077,9.07750298 152.808228,10.3942931 153.508511,11.7857143 L153.67234,11.7857143 L153.67234,7.54285714 L140.320213,7.54285714 L140.320213,7.46428571 Z" id="Shape"></path>
            </g>
        </g>
    </g>
</svg>