<svg width="250" height="250" viewBox="0 0 250 250" xmlns="http://www.w3.org/2000/svg" xmlns:sketch="http://www.bohemiancoding.com/sketch/ns"><title>1024</title><desc>Created with Sketch.</desc><g sketch:type="MSLayerGroup" fill="#fff"><g id="Shape" sketch:type="MSShapeGroup"><path d="M89.031 136.221c4.082 0 7.653-1.527 10.204-4.836l5.357 5.599c-4.337 4.836-9.439 7.381-15.306 7.381-5.867 0-10.714-1.782-14.541-5.599-3.827-3.818-5.612-8.399-5.612-13.998s2.041-10.435 5.867-13.998c3.827-3.818 8.673-5.599 14.286-5.599 6.122 0 11.48 2.291 15.561 7.126l-5.357 5.854c-2.806-3.309-6.122-5.09-9.949-5.09-3.316 0-5.867 1.018-8.163 3.054-2.296 2.036-3.316 4.836-3.316 8.399 0 3.563 1.02 6.363 3.316 8.399 2.041 2.291 4.592 3.309 7.653 3.309zM133.164 105.935h8.418v37.922h-8.418v-15.016h-15.051v15.016h-8.418v-37.922h8.418v15.779h15.051v-15.779zM159.694 133.93c1.531 1.782 3.316 2.545 5.612 2.545 2.296 0 4.337-.764 5.612-2.545 1.276-1.782 2.041-4.072 2.041-7.126v-21.124h8.418v21.124c0 5.599-1.531 9.671-4.592 12.725-3.061 3.054-6.888 4.327-11.735 4.327-4.847 0-8.673-1.527-11.735-4.327-3.061-3.054-4.592-7.126-4.592-12.725v-21.124h8.418v20.87c.51 3.054 1.276 5.599 2.551 7.381zM205.868 113.061v30.541h-8.418v-30.541h-10.714v-7.381h30.102v7.381h-10.969zM248.725 105.68v7.635h-18.878v7.635h17.092v7.126h-17.092v8.144h19.643v7.381h-28.061v-37.922h27.296z"/></g><g sketch:type="MSShapeGroup"><path d="M29.847 119.678c-4.082 0-7.398 3.309-7.398 7.381s3.316 7.381 7.398 7.381 7.398-3.309 7.398-7.381c-.255-4.072-3.571-7.381-7.398-7.381zm0 12.471c-2.806 0-5.102-2.291-5.102-5.09 0-2.8 2.296-5.09 5.102-5.09 2.806 0 5.102 2.291 5.102 5.09-.255 2.8-2.551 5.09-5.102 5.09z" id="Shape"/><path d="M32.398 112.552h6.633v3.309h-6.633z"/><path d="M29.847 95.5c-16.327 0-29.337 12.98-29.337 29.014s13.01 29.014 29.082 29.014c16.071 0 29.082-12.98 29.082-29.014.255-16.034-12.755-29.014-28.827-29.014zm14.031 42.757h-27.55c-5.102 0-9.184-4.072-9.184-9.162 0-4.327 3.061-7.89 7.143-8.908.255-3.563 3.316-6.363 6.888-6.363 2.041 0 3.827.764 5.102 2.036 1.531-4.072 5.357-6.872 9.949-6.872 5.867 0 10.714 4.836 10.714 10.689v.509c3.571 1.273 6.122 4.836 6.122 8.908-.51 4.581-4.337 8.653-9.184 9.162z"/></g></g></svg>