<?xml version="1.0" encoding="UTF-8" standalone="no"?>
<svg width="50px" height="49px" viewBox="0 0 50 49" version="1.1" xmlns="http://www.w3.org/2000/svg" xmlns:xlink="http://www.w3.org/1999/xlink">
  <g id="Home" stroke="none" stroke-width="1" fill="none" fill-rule="evenodd">
    <g transform="translate(-575.000000, -481.000000)" id="Clients" fill="#BEC3CC">
      <g transform="translate(167.000000, 481.000000)">
        <g id="Chipotle" transform="translate(408.189474, 0.000000)">
          <g id="Calque_3">
            <g id="Group">
              <path d="M24.4555105,10.5772625 C16.7438536,10.5772625 10.4898954,16.8051625 10.4898954,24.4861167 C10.4898954,32.1703375 16.7438536,38.3984417 24.4555105,38.3984417 C32.173113,38.3984417 38.4272762,32.1703375 38.4272762,24.4861167 C38.4274812,16.8053667 32.173113,10.5772625 24.4555105,10.5772625 Z M24.4555105,37.466625 C17.2621464,37.466625 11.4276611,31.6546125 11.4276611,24.4861167 C11.4276611,17.3204792 17.2621464,11.5096917 24.4555105,11.5096917 C31.6572803,11.5096917 37.4923808,17.3204792 37.4923808,24.4861167 C37.4923808,31.6546125 31.6572803,37.466625 24.4555105,37.466625 Z M24.4555105,0.164354167 C10.9684142,0.164354167 0.0323933054,11.055625 0.0323933054,24.4861167 C0.0323933054,37.9227333 10.9686192,48.8127792 24.4555105,48.8127792 C37.9473222,48.8127792 48.8837531,37.9225292 48.8837531,24.4861167 C48.8839582,11.0554208 37.9473222,0.164354167 24.4555105,0.164354167 Z M24.4555105,47.5279583 C11.6800418,47.5279583 1.32074477,37.21305 1.32074477,24.4861167 C1.32074477,11.7632667 11.6800418,1.44795 24.4555105,1.44795 C37.2352845,1.44795 47.5939665,11.7632667 47.5939665,24.4861167 C47.5941715,37.21305 37.2352845,47.5279583 24.4555105,47.5279583 Z" id="Shape"></path>
              <path d="M5.37913389,24.7247875 C5.38589958,25.0136833 5.62679916,25.2441875 5.91772385,25.2382667 C6.20905858,25.2319375 6.4405272,24.9930625 6.43417155,24.7025333 C6.42863598,24.4128208 6.18753138,24.182725 5.89578661,24.18885 C5.6046569,24.1941583 5.37421339,24.4342583 5.37913389,24.7247875 Z M7.55994142,34.8281792 L9.9910795,33.1701417 L11.2462176,34.9947792 L10.7715941,35.320425 L9.87893305,34.0239667 L9.38524268,34.3602292 L10.1712929,35.5015208 L9.69625941,35.82635 L8.91020921,34.6860792 L8.39991213,35.033775 L9.30466946,36.3465667 L8.8288159,36.672825 L7.55994142,34.8281792 Z M11.5961883,39.53565 L11.7938285,38.3512792 L10.6206987,38.64385 L10.0790335,38.1471125 L11.848364,37.7406167 L12.1019749,36.0172458 L12.6590167,36.5264375 L12.4693724,37.645475 L13.5738201,37.363725 L14.1144603,37.85985 L12.416477,38.2516458 L12.1534351,40.0468833 L11.5961883,39.53565 Z M13.8401423,41.1943 L15.3898954,38.7046917 L15.9401715,39.0440167 L14.3895983,41.5344417 L13.8401423,41.1943 Z M17.659272,43.1491958 C16.8494393,42.8396792 16.4853222,41.9913667 16.7869079,41.2034875 L16.7893682,41.1949125 C17.0880837,40.4156083 17.9210837,40.0019667 18.767,40.3235292 C19.286113,40.5191208 19.5302929,40.8106708 19.6900042,41.1577542 L19.1362427,41.4544083 C18.9976485,41.1816417 18.8248159,40.9813542 18.5502929,40.8766167 C18.0861255,40.6996042 17.6047364,40.9572625 17.4259582,41.4288875 L17.4228828,41.4360333 C17.2426695,41.9054125 17.4191925,42.4213417 17.8911506,42.6014167 C18.2052427,42.7200375 18.4469623,42.6681792 18.737682,42.55405 L18.9744812,43.0885583 C18.5757155,43.2812917 18.1902762,43.3498917 17.659272,43.1491958 Z M23.0527573,44.2927333 L22.8647531,43.6089792 L21.6280669,43.4578958 L21.2809665,44.0789708 L20.6251046,43.9999583 L22.235954,41.217575 L22.8296946,41.2876042 L23.7248159,44.3733792 L23.0527573,44.2927333 Z M22.4307238,42.0207667 L21.9265774,42.9199167 L22.7044268,43.013425 L22.4307238,42.0207667 Z M27.842046,44.0863208 L26.1942929,42.4127667 L26.4261715,44.2631292 L25.7897866,44.3409167 L25.4254644,41.4323583 L26.0196151,41.3590625 L27.6136527,42.9787167 L27.3897699,41.1894 L28.0249247,41.1095708 L28.3880167,44.0185375 L27.842046,44.0863208 Z M33.0231297,42.5334292 C32.1895146,42.9144042 31.3460586,42.5924333 30.9817364,41.8033292 L30.9788661,41.7965917 C30.6284854,41.0389292 30.9372469,40.1463125 31.7481046,39.7767708 C32.2294937,39.5566792 32.5794644,39.5534125 32.9681841,39.6624375 L32.8033473,40.2765708 C32.5173431,40.1993958 32.2883347,40.1851042 31.9789582,40.3255708 C31.5496444,40.5213667 31.3831674,41.0552625 31.5916736,41.5068792 L31.595364,41.5144333 C31.820887,42.0023917 32.3229833,42.2075792 32.7955565,41.9907542 C33.0106234,41.89255 33.1766904,41.7508583 33.2773556,41.5765 L33.1020628,41.1947083 L32.5085272,41.4670667 L32.2758285,40.9597125 L33.4362469,40.4280625 L33.9719665,41.5873208 C33.8020042,41.94645 33.5121046,42.3092542 33.0231297,42.5334292 Z M37.436,39.6797917 L36.3555397,39.333525 L35.9555439,39.6463083 L36.5402636,40.3827375 L36.0332469,40.7845375 L34.2056904,38.4835792 L35.260523,37.6516 C35.8066987,37.2224417 36.3604603,37.2512292 36.7360586,37.7248958 L36.7407741,37.7308167 C37.0355941,38.1017875 37.0214477,38.4946042 36.8125314,38.8339292 L38.0287155,39.21225 L37.436,39.6797917 Z M36.2417531,38.1552792 C36.0699456,37.9396792 35.828431,37.9474375 35.5813808,38.1416 L35.0776444,38.5413583 L35.5998326,39.2002042 L36.1152552,38.7951375 C36.3635356,38.6019958 36.4018745,38.3580167 36.2462636,38.16365 L36.2417531,38.1552792 Z M39.4441799,37.7310208 L37.2192929,35.810425 L37.6436862,35.3236917 L39.866523,37.2444917 L39.4441799,37.7310208 Z M41.2305272,35.4639542 L38.7017992,33.9621042 L39.033728,33.4090167 L41.0566695,34.6093125 L41.8082762,33.3559333 L42.3148828,33.6546292 L41.2305272,35.4639542 Z M43.1544435,31.792425 L40.3690293,30.8448875 L40.5777406,30.2344292 L42.8069331,30.9933167 L43.2825816,29.6096792 L43.8379833,29.7979208 L43.1544435,31.792425 Z M6.2191046,32.2019833 L8.02144351,31.532725 L6.5522636,31.1960542 L6.54570293,31.1805375 L7.42667782,29.9812625 L5.63643515,30.6456208 L5.41419247,30.0535375 L8.1741841,29.0280083 L8.41856904,29.6807292 L7.52160251,30.8357 L8.96043933,31.1254125 L9.20420921,31.7775208 L6.44421757,32.80305 L6.2191046,32.2019833 Z M10.8355607,13.1763042 C10.7775397,13.2355125 10.7775397,13.3306542 10.838431,13.3890458 L11.9828577,14.5017542 C12.0416987,14.56035 12.0427238,14.6548792 11.985113,14.7136792 L11.544728,15.1632542 C11.4860921,15.2228708 11.3899372,15.2249125 11.3313013,15.1659083 L7.75307113,11.6850708 C7.69279498,11.6256583 7.69279498,11.530925 7.75020084,11.4713083 L8.19038075,11.0239792 C8.24840167,10.9641583 8.34435146,10.962525 8.40401255,11.0209167 L10.0037908,12.5776875 C10.0628368,12.63465 10.1596067,12.6342417 10.2178326,12.5752375 L11.9313975,10.8279792 C11.9896234,10.7683625 11.9885983,10.6722 11.9293473,10.6150333 L10.328954,9.05805833 C10.2692929,9.00048333 10.2690879,8.904525 10.3266987,8.84531667 L10.7662636,8.39696667 C10.8255146,8.33837083 10.9214644,8.33694167 10.9807155,8.3943125 L14.5581255,11.876375 C14.6179916,11.9337458 14.6188117,12.0288875 14.5614059,12.0891167 L14.121841,12.5374667 C14.063205,12.5960625 13.9666402,12.5974917 13.906569,12.5397125 L12.7629623,11.4268 C12.7037113,11.3688167 12.6079665,11.3702458 12.5491255,11.4298625 L10.8355607,13.1763042 Z M14.8170669,5.709725 C14.8914895,5.67175 14.9833389,5.699925 15.0214728,5.7740375 L17.336569,10.1891417 C17.3744979,10.261825 17.3466151,10.3532917 17.2719874,10.3929 L16.7147406,10.6822042 C16.6411381,10.7207917 16.5492887,10.6922083 16.5101297,10.6193208 L14.1950335,6.2034 C14.1568996,6.13010417 14.1853975,6.03761667 14.2604351,5.9994375 L14.8170669,5.709725 Z M27.2770084,9.15605833 C25.6704644,8.87635 24.7650921,7.46923333 25.0238285,5.9969875 C25.2821548,4.52555833 26.6354979,3.49615 28.2416318,3.77749167 C29.8436653,4.0578125 30.7502678,5.46370417 30.4900962,6.93737917 C30.2321799,8.40942083 28.8815021,9.4367875 27.2770084,9.15605833 Z M28.0786402,4.61620833 C27.0404142,4.43429583 26.1686653,5.13315833 25.9884519,6.15113333 C25.8098787,7.16951667 26.401364,8.13726667 27.43959,8.31917917 C28.478636,8.50109167 29.3452594,7.8014125 29.5254728,6.78405 C29.704046,5.7666875 29.1129707,4.7971 28.0786402,4.61620833 Z M33.0788954,11.1307583 C33.035636,11.2020125 32.9427615,11.2265125 32.8705941,11.1826167 L32.3240084,10.8588083 C32.2530711,10.8163417 32.2294937,10.7226292 32.2723431,10.6517833 L34.3918494,7.11092083 C34.4322385,7.04089167 34.4111213,6.94840417 34.3385439,6.90430417 L33.1545481,6.20115417 C33.0813556,6.158075 33.0600335,6.0668125 33.1016527,5.99555833 L33.3876569,5.5155625 C33.4321464,5.44349167 33.5242008,5.41980833 33.5969833,5.462275 L37.0331339,7.5049625 C37.1048912,7.54640833 37.1288787,7.63950833 37.0864393,7.71096667 L36.799,8.1909625 C36.7565607,8.2620125 36.662046,8.28508333 36.5915188,8.24220833 L35.4062929,7.53824167 C35.3341255,7.495775 35.241251,7.51986667 35.1984017,7.59152917 L33.0788954,11.1307583 Z M39.3925146,9.752225 C39.454636,9.69791667 39.5518159,9.705675 39.6043013,9.76835417 L40.0155732,10.2432458 C40.0696987,10.305925 40.062113,10.4024958 39.9987615,10.4561917 L36.8508703,13.1524167 C36.7852636,13.2071333 36.7782929,13.3018667 36.8328285,13.3643417 L38.4545439,15.2418583 C38.5074393,15.30515 38.5002636,15.4007 38.4389623,15.4554167 L38.0248201,15.808625 C37.9596234,15.862525 37.8646987,15.8557875 37.8097531,15.793925 L35.5805607,13.2106042 C35.5272552,13.1495583 35.5336109,13.0536 35.5965523,12.9992917 L39.3925146,9.752225 Z M44.2556109,19.111225 C44.1770879,19.1408292 44.0913891,19.1016292 44.060636,19.0238417 L43.1120042,16.5083042 C43.0843264,16.4297 42.9965774,16.3898875 42.9182594,16.4192875 L41.5983347,16.91235 C41.5214519,16.94175 41.4806527,17.0281125 41.5097657,17.1073292 L42.2209833,18.9938292 C42.2503013,19.0705958 42.2105272,19.1581833 42.1320042,19.1886042 L41.6338033,19.3731708 C41.5565105,19.4023667 41.4691715,19.3629625 41.4396485,19.2853792 L40.729251,17.3988792 C40.699318,17.3204792 40.611569,17.2812792 40.5350962,17.3094542 L39.7959958,17.5854875 C39.7166527,17.6150917 39.6770837,17.7018625 39.7074268,17.7800583 L40.6673347,20.3309167 C40.6980879,20.4087042 40.6589289,20.4967 40.5791757,20.5252833 L40.0830251,20.7114833 C40.0053222,20.7410875 39.9175732,20.7002542 39.8888703,20.6224667 L38.5982636,17.2024708 C38.5701757,17.1244792 38.6103598,17.0368917 38.6880628,17.0087167 L43.3703305,15.2586 C43.4480335,15.2294042 43.5366025,15.2684 43.5661255,15.3463917 L44.8434059,18.7322917 C44.8706736,18.8096708 44.8302845,18.8964417 44.7529916,18.9248208 L44.2556109,19.111225 Z M22.8253891,5.30772083 C22.6109372,4.25156667 21.4501088,3.7246125 20.2396653,3.9696125 L18.3380962,4.35344583 C18.2564979,4.36998333 18.2038075,4.44940417 18.2197992,4.5306625 L19.2147657,9.41310417 C19.2299372,9.49334167 19.3107155,9.54805833 19.3919038,9.53090833 L20.0094268,9.40657083 C20.0908201,9.389625 20.1449456,9.30959167 20.1281339,9.22772083 L19.8488954,7.8596 C19.8329038,7.77875 19.8855941,7.69871667 19.9680126,7.68217917 L20.8512427,7.50353333 C21.9954644,7.27180417 23.0636234,6.47800417 22.8253891,5.30772083 Z M19.8005105,6.86081667 C19.7182971,6.87755833 19.639159,6.82467917 19.6223473,6.74382917 L19.3021046,5.17480833 C19.2859079,5.0941625 19.3388033,5.01290417 19.4214268,4.99636667 L20.3335649,4.81200417 C21.0179247,4.67480417 21.5202259,4.90449167 21.6450837,5.51821667 C21.7586653,6.07252917 21.4045941,6.5359875 20.7134686,6.67665833 L19.8005105,6.86081667 Z M5.74837657,16.5697583 C5.96487866,16.0703667 6.34560251,15.759625 6.80894979,15.5393292 C6.88316736,15.5040083 6.91576569,15.4121333 6.8786569,15.337 L6.61274477,14.7865667 C6.57522594,14.7132708 6.48522176,14.6810125 6.41141423,14.7181708 C5.83612552,14.9886917 5.31967782,15.409275 4.96458159,16.222675 C4.32266109,17.69145 5.00415063,19.2129 6.39460251,19.8164167 L6.36692469,19.8041667 C7.75635146,20.40605 9.33890795,19.865825 9.97959833,18.3972542 C10.3365397,17.5842625 10.2945105,16.9223542 10.103841,16.317 C10.0780084,16.2390083 9.99312971,16.1951125 9.91399163,16.2179792 L9.32599163,16.3992792 C9.24767364,16.4241875 9.20277406,16.509325 9.22737657,16.5885417 C9.38032218,17.075275 9.41148536,17.5646625 9.19395816,18.0634417 C8.78678661,18.9921958 7.72969874,19.3321333 6.77122594,18.9162458 C5.81090795,18.5009708 5.34079498,17.499125 5.74837657,16.5697583 Z M43.0199498,24.1886458 C42.72841,24.1825208 42.4877155,24.4126167 42.4813598,24.7023292 C42.4741841,24.9928583 42.7068828,25.2317333 42.9980126,25.2380625 C43.2887322,25.2439833 43.5306569,25.0134792 43.5357824,24.7245833 C43.5425481,24.4342583 43.3118996,24.1941583 43.0199498,24.1886458 Z" id="Shape"></path>
              <path d="M29.115431,14.9372417 C29.2855983,14.9576583 30.036795,15.2200125 30.036795,15.2200125 C30.036795,15.2200125 30.761954,16.2767792 30.9472929,16.5034042 C31.134272,16.7302333 31.0510335,16.8943833 31.0510335,16.8943833 L30.6955272,18.1892083 C30.6955272,18.1892083 30.8248954,18.2947625 30.6955272,18.1892083 C30.5636987,18.0840625 29.6039958,18.1706292 29.3753975,18.1920667 C29.1467992,18.2116667 29.5832887,17.9235875 29.6866192,17.8208917 C29.7899498,17.7179917 30.2047071,17.4295042 30.1516067,17.2641292 C30.1019916,17.0989583 29.4768828,15.8960083 29.4768828,15.8960083 C29.4768828,15.8960083 28.3861715,15.8851875 27.8686987,15.94705 C27.3510209,16.0087083 26.2629749,17.0869125 26.2629749,17.0869125 L25.8668745,18.6455208 C25.8668745,18.6455208 26.0265858,18.9321708 26.254569,19.1179625 C26.4819372,19.3037542 27.1443598,19.2412792 27.3922301,19.2206583 C27.6401004,19.2010583 27.53759,19.4893417 27.3305188,19.6743167 C27.1226276,19.8594958 26.3786067,19.8594958 26.3786067,19.8594958 L26.6881883,19.9630083 C27.0305732,20.2723208 27.6583473,21.85645 28.0288201,22.2259917 C28.3988828,22.5928792 28.0175439,24.451 27.4865397,24.9799958 C26.9538954,25.50695 26.7004895,26.6459958 26.3765565,26.9679667 C26.0509833,27.2913667 25.7157741,27.1645792 26.0509833,27.4979833 C26.3884477,27.8301625 26.2320167,28.2327792 26.2849121,28.5267792 C26.3193556,28.7156333 26.3726611,29.0592458 26.5368828,29.2203333 C26.6961841,29.381625 29.1500795,31.074575 30.1364351,31.1523625 C30.3162385,31.1674708 30.3186987,32.0292583 29.3075356,33.0880667 C29.3075356,33.0880667 29.1273222,33.69975 27.4418452,33.7534458 C25.6026025,33.8104083 23.794113,33.5047708 23.3779205,33.5047708 C22.9629582,33.5047708 21.7545649,32.8208125 21.7545649,32.8208125 C21.5247364,32.8208125 17.6857197,27.5032917 17.6857197,27.1357917 C17.6857197,26.767475 17.4136569,25.7729792 17.4136569,25.4044583 C17.4136569,25.0369583 17.8409205,21.669025 17.7726485,21.2615083 C17.718113,20.9409667 17.8858201,20.8664458 18.2560879,20.4975167 C18.6257406,20.1302208 19.2928787,19.5069 19.5458745,19.2541417 C19.6602762,19.1408292 20.5449414,19.1655333 21.6176109,18.937275 L21.7834728,18.8668375 L21.5704561,18.7639375 C21.5704561,18.7639375 21.2254059,18.3317167 20.667749,18.3527458 C20.109887,18.3729583 19.9224979,18.4144042 20.2126025,18.2912917 C20.5022971,18.1677708 21.0224351,17.7767917 21.0224351,17.7767917 L22.2388243,18.3117083 L23.1583431,18.3117083 L24.3105607,17.3674375 L26.9235523,15.2532917 L29.115431,14.9372417 L29.115431,14.9372417 Z M20.7598033,21.6300292 C20.4508368,21.6855625 19.9520209,21.5977708 19.717272,22.0236625 L19.2711464,23.9532417 C19.2711464,23.9532417 19.3191213,25.890375 19.3619707,26.2746167 C19.403795,26.6574292 19.9058912,27.906725 20.1865649,28.1874542 C20.4342301,28.4342917 20.9158243,29.2501417 21.3521088,29.6801167 C21.4699958,29.7954708 21.7098703,29.8516167 21.8103305,29.986775 C21.9917741,30.2311625 21.8786025,30.0629292 21.5534393,29.5831375 C20.3571423,27.8189333 20.0988159,26.2960542 20.040795,26.0363542 C19.9130669,25.4679542 20.0073766,24.13495 20.040795,23.6004417 C20.0580167,23.3174667 20.2554519,22.6829167 20.442636,22.5410208 C20.530795,22.4736458 21.3510837,22.3834042 21.5163305,22.3362417 C21.7724017,22.2611083 22.1361088,22.2662125 22.3708577,22.2182333 C23.1224644,22.0644958 24.5043054,22.4471042 24.598,22.4916125 C25.7231548,23.0095833 25.2866653,23.1902708 25.3030669,23.2511125 C25.3215188,23.3146083 23.7369121,26.4910333 23.7444979,26.6406875 C23.7516736,26.8021833 23.8090795,28.3910083 23.9585397,28.8252708 C24.0026192,28.9534875 24.5022552,30.1556208 24.5926695,30.3734667 C24.9883598,31.3287625 23.7406025,30.2148292 23.6600293,30.1711375 C23.579046,30.1260167 21.9329331,27.3093333 21.6951088,26.7117375 C21.5345774,26.309325 21.5932134,25.7035625 21.6251967,25.5747333 C21.667841,25.3985375 21.540523,24.0383792 21.7941339,23.8521792 C21.9663515,23.7258 22.7368201,23.6488292 23.1089331,23.8113458 C23.4470126,23.9587542 23.6288661,24.3364625 23.5940126,24.4256833 C23.5669498,24.5008167 23.0320502,26.2178583 22.9490167,26.074125 C22.922364,26.0271667 22.9199038,25.4832667 22.8495816,25.4295708 C22.7782343,25.3740375 22.3858243,25.292575 22.3374393,25.3546417 C22.2890544,25.4193625 22.1941297,25.995725 22.2443598,26.1933583 C22.4817741,27.1482458 23.0361506,26.8509792 23.1413264,26.6727417 C23.2971423,26.4075292 24.049569,24.297875 24.0362427,24.1621042 C24.0044644,23.8515667 23.7738159,23.31665 23.285251,23.1529083 C22.9922762,23.0553167 21.7178661,23.109625 21.3666653,23.2923542 C20.8284854,23.5739 20.8598536,26.0122625 20.9627741,26.3677167 C21.0652845,26.7199042 22.7614226,29.5568 22.8411757,29.77485 C22.9982218,30.1997208 24.0251715,31.2101417 24.1859079,31.3050792 C24.2527448,31.3453 25.6540628,31.8873625 25.8353013,31.6156167 C25.9146444,31.4974042 25.8752803,31.1686958 25.5253096,30.9406417 C25.1917406,30.7223875 24.3929791,28.4044833 24.3958494,28.22155 C24.3989247,28.0506625 24.1877531,26.7597167 24.3277824,26.4910333 C24.5930795,25.9783708 26.5016192,23.13045 26.2922929,22.9017833 C26.0124393,22.5934917 25.156682,21.1559542 24.755046,21.6976083 C24.3929791,22.1872 22.676954,21.6831125 22.2496904,21.3717583 C22.2181172,21.3474625 21.206749,21.5481583 20.7598033,21.6300292 Z M26.5377029,32.6152167 C27.0918745,32.6152167 28.6375272,31.7956917 28.0644937,31.4192083 C27.7020167,31.1827833 27.2768033,30.8659167 26.4928033,30.2683208 C26.1399623,30.0000458 25.9861967,30.0729333 25.8777406,30.0729333 C25.5538075,30.0729333 26.0798912,29.5523083 25.9062385,29.1321333 C25.714749,28.6741875 25.6062929,27.9724667 25.4453515,27.8132167 C25.2827699,27.6515167 25.3491967,26.804225 25.6880962,26.4659208 C26.0593891,26.0969917 26.5910084,25.0238917 26.8837782,24.6135167 C27.2325188,24.1227 27.4711632,23.0451083 27.3337992,22.906275 C27.1935649,22.7688708 26.5602552,21.4601625 26.2847071,21.1837208 C26.1049038,21.0058917 25.8117238,20.5683625 25.5171088,20.2122958 L25.5171088,20.2122958 L25.4478117,20.1145 C25.4478117,20.1145 25.4478117,20.1145 25.1499163,20.2833458 C24.852431,20.4542333 24.4840084,20.8054 24.4840084,20.8054 C24.4840084,20.8054 24.2277322,20.8897208 23.6348117,20.7713042 C23.3153891,20.7074 23.1999623,20.4834292 23.1999623,20.2290375 C23.1999623,19.97485 23.0332803,20.0393667 23.0332803,20.0393667 C23.0332803,20.0393667 20.0397699,20.1839167 19.8197824,20.3098875 C19.6018452,20.4368792 18.6452176,21.7419125 18.6452176,21.7419125 C18.6452176,21.7419125 18.1359456,26.7041833 18.5285607,27.0967958 C18.9978536,27.5629083 21.4449833,31.4012417 21.902795,31.8595958 C22.3577364,32.4800583 25.9827113,32.6152167 26.5377029,32.6152167 Z" id="Shape"></path>
            </g>
          </g>
        </g>
      </g>
    </g>
  </g>
</svg>
